<?xml version="1.0" encoding="UTF-8"?>
<svg version="1.1" xmlns="http://www.w3.org/2000/svg" width="256" height="256">
<path d="M0 0 C20.64662761 18.60465345 35.05698054 43.98569379 36.65234375 72.13720703 C37.87766952 104.97083202 28.45294613 132.30967931 6.30859375 156.63671875 C-12.96200165 176.76454705 -39.6675703 187.98080664 -67.37744141 188.59570312 C-78.10303517 188.66922332 -88.12226585 187.98152878 -98.51171875 185.2421875 C-99.72472656 184.92507812 -100.93773438 184.60796875 -102.1875 184.28125 C-118.38593976 179.45763858 -132.24598021 170.72722132 -144.51171875 159.2421875 C-145.26839844 158.55382812 -146.02507812 157.86546875 -146.8046875 157.15625 C-160.28500581 144.37993284 -169.68776828 127.04351061 -174.51171875 109.2421875 C-174.83011719 108.12199219 -175.14851563 107.00179687 -175.4765625 105.84765625 C-181.9931724 79.09051608 -177.06933389 50.04369659 -163.19921875 26.4921875 C-159.18986829 19.93888011 -154.65264406 13.95932861 -149.51171875 8.2421875 C-148.82722656 7.47519531 -148.14273438 6.70820312 -147.4375 5.91796875 C-108.63458767 -35.18012508 -42.20769323 -36.14229139 0 0 Z M-109.5390625 41.3984375 C-122.95518417 57.85993649 -127.42554285 76.36601 -125.51171875 97.2421875 C-124.18495312 106.72562065 -120.30575946 114.69673904 -114.51171875 122.2421875 C-113.96128906 122.96019531 -113.41085938 123.67820312 -112.84375 124.41796875 C-105.20919633 133.09742822 -92.01504395 139.39910992 -80.51171875 140.2421875 C-79.61710937 140.31050781 -78.7225 140.37882812 -77.80078125 140.44921875 C-66.75702168 140.84892587 -55.54350005 138.87523527 -45.51171875 134.2421875 C-45.85399447 131.27153241 -45.85399447 131.27153241 -46.51171875 128.2421875 C-48.54834955 126.94045637 -48.54834955 126.94045637 -51.05078125 127.984375 C-52.06914062 128.35820312 -53.0875 128.73203125 -54.13671875 129.1171875 C-59.07233445 130.82318101 -63.31018431 131.90110327 -68.51171875 132.2421875 C-69.18203125 132.29375 -69.85234375 132.3453125 -70.54296875 132.3984375 C-83.30585032 132.95334539 -95.4308282 128.56606552 -104.8828125 120.03515625 C-111.82964618 112.38864148 -115.92016543 102.49577846 -116.51171875 92.2421875 C-116.56457031 91.38109375 -116.61742187 90.52 -116.671875 89.6328125 C-117.15482257 74.0944993 -113.29777721 62.40079161 -105.51171875 49.2421875 C-105.18300781 48.48421875 -104.85429688 47.72625 -104.515625 46.9453125 C-103.20657411 44.72451022 -101.83346068 44.28236299 -99.51171875 43.2421875 C-98.46485822 42.33384287 -97.44442424 41.3943496 -96.44921875 40.4296875 C-88.1487069 33.12880718 -77.02496653 29.84777778 -66.13671875 29.9921875 C-65.38575928 30.00040527 -64.6347998 30.00862305 -63.86108398 30.01708984 C-52.89035414 30.23833627 -44.53648287 32.72553602 -36.2421875 40.3203125 C-27.11262167 50.00883134 -23.97420313 61.5989589 -24.328125 74.77734375 C-25.01489774 83.99763303 -27.36525437 93.83429484 -34.44921875 100.3046875 C-37.68972234 102.35480201 -39.69072896 103.1591225 -43.51171875 103.2421875 C-45.82421875 102.4921875 -45.82421875 102.4921875 -47.51171875 101.2421875 C-50.8062115 91.35870925 -47.42951395 79.97723975 -45.51171875 70.0546875 C-45.22174697 68.51514494 -44.9326778 66.97543209 -44.64453125 65.43554688 C-43.94397177 61.70238463 -43.23128182 57.97173138 -42.51171875 54.2421875 C-52.13070248 49.29338621 -61.74353752 48.93764753 -72.13671875 51.8671875 C-83.8729363 55.86722378 -91.51587018 62.78327016 -97.38671875 73.7421875 C-100.19983681 82.49411037 -102.00572952 91.38042729 -98.7578125 100.31640625 C-96.07899818 105.48349161 -92.0492731 109.39633605 -86.51171875 111.2421875 C-79.55072246 112.11053264 -73.59608355 110.69167035 -67.51171875 107.2421875 C-63.55680416 104.04412336 -60.51180758 100.32589051 -57.51171875 96.2421875 C-57.42535156 96.91765625 -57.33898437 97.593125 -57.25 98.2890625 C-56.39596842 104.12709326 -56.39596842 104.12709326 -53.01171875 108.8046875 C-48.7236464 111.2703291 -45.4370554 111.83845545 -40.51171875 111.2421875 C-31.6993059 108.66131393 -25.82789905 104.70009945 -20.9375 96.890625 C-14.03104465 84.06164766 -13.25862325 68.09118661 -17.07421875 54.1171875 C-21.49947526 42.03283317 -30.50095287 32.18132223 -41.9375 26.2734375 C-65.06556004 17.00817521 -92.49046141 23.26582131 -109.5390625 41.3984375 Z " fill="#2D77BD" transform="translate(198.51171875,46.7578125)"/>
<path d="M0 0 C-1.00297493 14.69877048 -2.85303794 29.46638753 -14 40 C-17.3256177 42.59765991 -20.33311181 43.90640166 -24.5625 44.5 C-28.86409586 43.87431333 -30.80871869 42.97369394 -34 40 C-37.21113133 34.1615794 -37.64087113 28.38728358 -36 22 C-34.87303937 18.87918594 -33.51272852 15.950398 -32 13 C-31.5875 12.113125 -31.175 11.22625 -30.75 10.3125 C-23.39048448 0.58742592 -11.63212917 -3.24861265 0 0 Z " fill="#2D78BD" transform="translate(145,106)"/>
<path d="M0 0 C1.01767676 3.16610547 0.79242075 4.83031702 0 8 C-0.27271002 13.54510377 0.24808488 17.74425465 2 23 C2.99 22.95875 3.98 22.9175 5 22.875 C9.23835866 22.8576652 12.93193985 23.85808838 17 25 C14.5107319 27.38969738 13.09893865 27.98717462 9.625 28.4375 C5.17912117 27.90092842 3.28243385 27.05863154 0 24 C-3.25325979 18.08498221 -3.43159602 12.47857859 -2 6 C-1.3974699 3.97975201 -0.75679435 1.96766531 0 0 Z " fill="#3F74AE" transform="translate(111,122)"/>
<path d="M0 0 C0.578125 1.86328125 0.578125 1.86328125 1 4 C-0.7573799 7.07541482 -1.57945994 7.85981998 -5 9 C-5.73323796 11.01508358 -5.73323796 11.01508358 -6 13 C-9.79898364 13 -13.58206538 12.81720952 -17.375 12.625 C-18.13039063 12.5940625 -18.88578125 12.563125 -19.6640625 12.53125 C-23.83616401 12.31243349 -27.18241484 11.87076882 -31 10 C-30.67 9.34 -30.34 8.68 -30 8 C-29.360625 8.33 -28.72125 8.66 -28.0625 9 C-21.04101007 11.29273141 -14.99594206 10.18934773 -8.30859375 7.2890625 C-4.84252388 5.35369354 -2.58648562 2.99487809 0 0 Z " fill="#3772AB" transform="translate(137,147)"/>
<path d="M0 0 C0.99 0.33 1.98 0.66 3 1 C4.1875 3.5625 4.1875 3.5625 5 6 C5.99 6 6.98 6 8 6 C12.06907516 18.29441996 13.68827146 29.06049653 13 42 C12.01 42.495 12.01 42.495 11 43 C10.97421875 41.70707031 10.9484375 40.41414063 10.921875 39.08203125 C10.49626893 24.30965734 8.44956679 12.47719363 0 0 Z " fill="#3B73A7" transform="translate(172,85)"/>
<path d="M0 0 C3.96 0.33 7.92 0.66 12 1 C-2.44049827 8.22024914 -24.65615099 6.76866467 -40 3 C-40 2.67 -40 2.34 -40 2 C-39.1028125 2.03029297 -38.205625 2.06058594 -37.28125 2.09179688 C-33.91914196 2.20467757 -30.55699826 2.31635545 -27.19482422 2.42724609 C-25.74591519 2.47527445 -24.29702149 2.5237676 -22.84814453 2.57275391 C-20.75296934 2.64350758 -18.6577428 2.71253102 -16.5625 2.78125 C-15.30566406 2.82314453 -14.04882812 2.86503906 -12.75390625 2.90820312 C-8.83289161 3.00408642 -4.92196117 3.0152014 -1 3 C-0.67 2.01 -0.34 1.02 0 0 Z " fill="#4176A8" transform="translate(144,230)"/>
<path d="M0 0 C1.06025391 -0.00064453 2.12050781 -0.00128906 3.21289062 -0.00195312 C10.41487738 0.04673886 17.23023705 0.4633477 24.25 2.1875 C21.58788628 3.56329827 19.18703384 4.55813561 16.25 5.1875 C16.25 4.5275 16.25 3.8675 16.25 3.1875 C4.37 2.8575 -7.51 2.5275 -19.75 2.1875 C-19.75 1.8575 -19.75 1.5275 -19.75 1.1875 C-13.14419351 0.1997897 -6.67465239 -0.00417949 0 0 Z " fill="#3F76AA" transform="translate(127.75,20.8125)"/>
<path d="M0 0 C0.7528125 0.00644531 1.505625 0.01289062 2.28125 0.01953125 C4.45990143 0.18446437 6.40204811 0.59149094 8.5 1.1875 C7.91523944 8.28156894 6.86766005 15.20313899 5.5 22.1875 C5.17 22.1875 4.84 22.1875 4.5 22.1875 C4.5 15.9175 4.5 9.6475 4.5 3.1875 C0.21 2.8575 -4.08 2.5275 -8.5 2.1875 C-4.84626252 0.36063126 -3.79208105 -0.07142618 0 0 Z " fill="#3F75A7" transform="translate(136.5,104.8125)"/>
<path d="M0 0 C6.48422766 7.70115554 6.45927008 18.40635833 6 28 C5.67 28 5.34 28 5 28 C4.34 25.03 3.68 22.06 3 19 C2.34 19.33 1.68 19.66 1 20 C0.67 18.02 0.34 16.04 0 14 C0.66 13.67 1.32 13.34 2 13 C1.72459296 9.18186553 1.72459296 9.18186553 0 6 C-0.04080783 4.00041636 -0.04254356 1.99954746 0 0 Z " fill="#3972AB" transform="translate(169,96)"/>
<path d="M0 0 C3.3 0 6.6 0 10 0 C10 0.66 10 1.32 10 2 C10.639375 2.12375 11.27875 2.2475 11.9375 2.375 C13.4534375 2.684375 13.4534375 2.684375 15 3 C16.08667969 3.14888672 16.08667969 3.14888672 17.1953125 3.30078125 C23.45265473 4.32302033 23.45265473 4.32302033 26.375 7.9375 C26.91125 8.948125 27.4475 9.95875 28 11 C29.62351109 12.79394446 29.62351109 12.79394446 31 14 C30.67 14.66 30.34 15.32 30 16 C29.52691406 15.55269531 29.05382812 15.10539062 28.56640625 14.64453125 C19.74724068 6.58178534 11.73949669 3.23177449 0 1 C0 0.67 0 0.34 0 0 Z " fill="#1287FB" transform="translate(141,69)"/>
<path d="M0 0 C0.99 0.33 1.98 0.66 3 1 C2.69240822 2.97993541 2.3787932 4.95893599 2.0625 6.9375 C1.88847656 8.03964844 1.71445313 9.14179687 1.53515625 10.27734375 C1 13 1 13 0 14 C-0.23678716 16.69235776 -0.42198025 19.36498156 -0.5625 22.0625 C-0.60568359 22.82111328 -0.64886719 23.57972656 -0.69335938 24.36132812 C-0.79973633 26.24065438 -0.90039934 28.12030244 -1 30 C-5.70471398 22.94292903 -2.62697608 12.99574303 -1.06762695 5.13208008 C-0.71874037 3.41994766 -0.36039821 1.70974629 0 0 Z " fill="#3F76A7" transform="translate(152,118)"/>
<path d="M0 0 C0.33 0 0.66 0 1 0 C1.25336251 2.95589601 1.28943375 4.55413819 -0.3515625 7.08203125 C-2.5907002 11.04562334 -3.494107 15.09835565 -4.5625 19.5 C-7.08172435 29.68608978 -7.08172435 29.68608978 -9 34 C-10.53847135 30.03818489 -9.46646746 26.57472465 -8.4375 22.625 C-8.26057617 21.92761719 -8.08365234 21.23023437 -7.90136719 20.51171875 C-5.98724366 13.34752038 -3.143503 6.70613974 0 0 Z " fill="#3F74A7" transform="translate(32,79)"/>
<path d="M0 0 C0 0.66 0 1.32 0 2 C-0.969375 2.12375 -1.93875 2.2475 -2.9375 2.375 C-4.4534375 2.684375 -4.4534375 2.684375 -6 3 C-6.33 3.66 -6.66 4.32 -7 5 C-7.66 5 -8.32 5 -9 5 C-9 5.66 -9 6.32 -9 7 C-13.16138263 7.08159574 -16.9472484 6.98248524 -21 6 C-17.62066551 4.16124447 -14.17043833 3.01148893 -10.5 1.875 C-8.81390625 1.34519531 -8.81390625 1.34519531 -7.09375 0.8046875 C-4 0 -4 0 0 0 Z " fill="#3A76AE" transform="translate(108,23)"/>
<path d="M0 0 C7.57142857 4 7.57142857 4 10 8 C9.01 8.33 8.02 8.66 7 9 C5.66666667 8.33333333 4.33333333 7.66666667 3 7 C0.67504723 6.61250787 -1.65851268 6.27017161 -4 6 C-3.67 5.01 -3.34 4.02 -3 3 C-2.01 2.67 -1.02 2.34 0 2 C0 1.34 0 0.68 0 0 Z " fill="#2D77B1" transform="translate(186,38)"/>
<path d="M0 0 C0.33 0.66 0.66 1.32 1 2 C-0.19264132 4.75927139 -1.44219409 7.39376548 -2.8125 10.0625 C-3.18181641 10.80822266 -3.55113281 11.55394531 -3.93164062 12.32226562 C-6.73767097 17.86883549 -6.73767097 17.86883549 -9 19 C-9.33 18.01 -9.66 17.02 -10 16 C-9.34 16 -8.68 16 -8 16 C-8 15.01 -8 14.02 -8 13 C-8.66 12.67 -9.32 12.34 -10 12 C-9.67 11.34 -9.34 10.68 -9 10 C-7.35 10 -5.7 10 -4 10 C-4 8.35 -4 6.7 -4 5 C-3.34 5 -2.68 5 -2 5 C-2 3.68 -2 2.36 -2 1 C-1.34 0.67 -0.68 0.34 0 0 Z " fill="#3A76A9" transform="translate(227,166)"/>
<path d="M0 0 C0.66 0.33 1.32 0.66 2 1 C2 3.33333333 2 5.66666667 2 8 C1.38511719 7.91621094 0.77023438 7.83242187 0.13671875 7.74609375 C-0.67152344 7.64425781 -1.47976562 7.54242188 -2.3125 7.4375 C-3.11300781 7.33308594 -3.91351563 7.22867188 -4.73828125 7.12109375 C-7.16817116 6.85244822 -7.16817116 6.85244822 -10 8 C-11.89470816 8.0685495 -13.7916834 8.08480372 -15.6875 8.0625 C-16.68136719 8.05347656 -17.67523438 8.04445312 -18.69921875 8.03515625 C-19.83810547 8.01775391 -19.83810547 8.01775391 -21 8 C-20.67 7.34 -20.34 6.68 -20 6 C-18.88625 6.0825 -17.7725 6.165 -16.625 6.25 C-11.28908461 6.26905684 -6.70943069 4.39848329 -2 2 C-1.34 1.34 -0.68 0.68 0 0 Z " fill="#3574AB" transform="translate(170,151)"/>
<path d="M0 0 C0 0.66 0 1.32 0 2 C-1.0621875 2.12117188 -2.124375 2.24234375 -3.21875 2.3671875 C-10.2734828 3.19568519 -17.16093248 4.00527197 -24 6 C-18.07089516 -1.41138105 -8.61975306 -0.25859259 0 0 Z " fill="#3976AA" transform="translate(144,95)"/>
<path d="M0 0 C0.99 0 1.98 0 3 0 C1.42903279 5.02709507 -1.61993049 9.02866469 -5 13 C-5.33 13 -5.66 13 -6 13 C-6.3125 9.8125 -6.3125 9.8125 -6 6 C-3.5625 3.125 -3.5625 3.125 -1 1 C-0.67 0.67 -0.34 0.34 0 0 Z " fill="#3775B2" transform="translate(215,185)"/>
<path d="M0 0 C5.80205656 5.64524422 5.80205656 5.64524422 8 9 C8 9.66 8 10.32 8 11 C4.62537285 10.45276317 2.91765 9.9451 0 8 C0.2784375 7.13375 0.2784375 7.13375 0.5625 6.25 C1.04023546 3.79307475 0.75729364 2.35602466 0 0 Z " fill="#2A75B3" transform="translate(210,60)"/>
<path d="M0 0 C0 0.66 0 1.32 0 2 C-0.969375 2.45375 -1.93875 2.9075 -2.9375 3.375 C-6.07079582 4.65786221 -6.07079582 4.65786221 -7 7 C-7.66 7 -8.32 7 -9 7 C-8.67 7.99 -8.34 8.98 -8 10 C-8.99 10 -9.98 10 -11 10 C-11 9.34 -11 8.68 -11 8 C-12.65 8.33 -14.3 8.66 -16 9 C-13.50506504 6.18368359 -10.73437182 4.59044019 -7.4375 2.8125 C-6.46683594 2.28269531 -5.49617188 1.75289062 -4.49609375 1.20703125 C-2 0 -2 0 0 0 Z " fill="#3C76A7" transform="translate(87,29)"/>
<path d="M0 0 C0.7425 0.391875 1.485 0.78375 2.25 1.1875 C1.26 1.6825 1.26 1.6825 0.25 2.1875 C0.25 2.8475 0.25 3.5075 0.25 4.1875 C-0.801875 4.31125 -1.85375 4.435 -2.9375 4.5625 C-6.20958771 5.09890782 -8.75536076 5.82630035 -11.75 7.1875 C-3.69465649 -1.09160305 -3.69465649 -1.09160305 0 0 Z " fill="#3374AE" transform="translate(71.75,38.8125)"/>
<path d="M0 0 C4.4571874 0.26218749 6.51522698 0.57711289 9.9375 3.5625 C10.618125 4.366875 11.29875 5.17125 12 6 C11.67 6.66 11.34 7.32 11 8 C6.40378078 6.5129879 3.53027653 4.20187872 0 1 C0 0.67 0 0.34 0 0 Z " fill="#3677B0" transform="translate(60,210)"/>
<path d="M0 0 C1 3 1 3 0.43359375 4.796875 C-2.12333935 9.81046932 -5.1530062 13.89653995 -9 18 C-10 16 -10 16 -9.375 13.625 C-8 11 -8 11 -5.5625 9.125 C-2.23246765 6.36350976 -1.47040756 4.02427332 0 0 Z " fill="#4072A4" transform="translate(140,128)"/>
<path d="M0 0 C3 3.625 3 3.625 3 7 C3.66 7 4.32 7 5 7 C5.53190541 8.43344 6.05015258 9.87195367 6.5625 11.3125 C6.85253906 12.11300781 7.14257812 12.91351563 7.44140625 13.73828125 C8 16 8 16 7 19 C5.8265684 16.39869373 4.66107492 13.79431492 3.5 11.1875 C2.99919922 10.08051758 2.99919922 10.08051758 2.48828125 8.95117188 C2.17246094 8.23896484 1.85664063 7.52675781 1.53125 6.79296875 C1.23798828 6.1383667 0.94472656 5.48376465 0.64257812 4.80932617 C0 3 0 3 0 0 Z " fill="#4173A6" transform="translate(26,160)"/>
<path d="M0 0 C2.25 0.0625 2.25 0.0625 5 1 C7.0898813 3.65742095 9 6.53550551 9 10 C8.34 10 7.68 10 7 10 C7 9.34 7 8.68 7 8 C6.01 7.67 5.02 7.34 4 7 C4 6.34 4 5.68 4 5 C2.68 5 1.36 5 0 5 C0 3.35 0 1.7 0 0 Z " fill="#3270AA" transform="translate(72,155)"/>
<path d="M0 0 C0.99 0.33 1.98 0.66 3 1 C3 1.66 3 2.32 3 3 C2.34 3 1.68 3 1 3 C1 3.66 1 4.32 1 5 C0.01 5 -0.98 5 -2 5 C-2 5.99 -2 6.98 -2 8 C-2.66 8 -3.32 8 -4 8 C-4.66 9.98 -5.32 11.96 -6 14 C-6.66 14 -7.32 14 -8 14 C-6.6744419 10.37723685 -5.05653045 7.36494652 -2.875 4.1875 C-2.33617187 3.39730469 -1.79734375 2.60710937 -1.2421875 1.79296875 C-0.83226562 1.20128906 -0.42234375 0.60960938 0 0 Z " fill="#3C72AC" transform="translate(41,65)"/>
<path d="M0 0 C0.33 0 0.66 0 1 0 C1.55443171 6.37596465 -0.08063964 11.32894525 -3 17 C-5.25 19.625 -5.25 19.625 -7 21 C-6.01 17.535 -6.01 17.535 -5 14 C-4.34 14 -3.68 14 -3 14 C-2.01 9.38 -1.02 4.76 0 0 Z " fill="#3B71A5" transform="translate(173,124)"/>
<path d="M0 0 C0.99 0.33 1.98 0.66 3 1 C-1.10168099 4.70474412 -5.70739435 7.38446682 -11 9 C-11.99 8.67 -12.98 8.34 -14 8 C-13.34 8 -12.68 8 -12 8 C-12 7.34 -12 6.68 -12 6 C-11.21753906 5.73445312 -10.43507812 5.46890625 -9.62890625 5.1953125 C-8.61699219 4.84210938 -7.60507813 4.48890625 -6.5625 4.125 C-5.55316406 3.77695313 -4.54382813 3.42890625 -3.50390625 3.0703125 C-0.86028249 2.25944907 -0.86028249 2.25944907 0 0 Z " fill="#3F74A4" transform="translate(179,219)"/>
<path d="M0 0 C1.75 0.0625 1.75 0.0625 4 1 C5.15585254 2.71014613 6.07010759 4.45313963 6.97265625 6.30859375 C8.03752726 8.33065189 8.03752726 8.33065189 11 10 C10.67 10.66 10.34 11.32 10 12 C1.18451025 4.88610478 1.18451025 4.88610478 0 0 Z " fill="#3A76A8" transform="translate(89,160)"/>
<path d="M0 0 C0.66 0 1.32 0 2 0 C2 0.66 2 1.32 2 2 C3.65 2 5.3 2 7 2 C7.33 4.64 7.66 7.28 8 10 C4.71211176 6.88983545 2.16264012 3.98381075 0 0 Z " fill="#3973AB" transform="translate(38,186)"/>
<path d="M0 0 C0.66 0.99 1.32 1.98 2 3 C1.67 3.99 1.34 4.98 1 6 C0.34 5.67 -0.32 5.34 -1 5 C-1.04898438 5.69867188 -1.09796875 6.39734375 -1.1484375 7.1171875 C-1.22320312 8.02726562 -1.29796875 8.93734375 -1.375 9.875 C-1.47941406 11.23238281 -1.47941406 11.23238281 -1.5859375 12.6171875 C-2 15 -2 15 -4 17 C-3.58411954 10.80481527 -2.39748106 5.73310689 0 0 Z " fill="#3E70A6" transform="translate(86,107)"/>
<path d="M0 0 C0.45375 0.495 0.9075 0.99 1.375 1.5 C2.87635519 3.22609337 2.87635519 3.22609337 5 3 C7.42857143 10.42857143 7.42857143 10.42857143 6 14 C5.67 11.69 5.34 9.38 5 7 C2.525 6.01 2.525 6.01 0 5 C0 3.35 0 1.7 0 0 Z " fill="#3777B3" transform="translate(226,94)"/>
<path d="M0 0 C3.71599191 -0.20086443 4.77208445 -0.1519437 8 2 C9.65549531 2.38499891 11.3222433 2.72793135 13 3 C13 3.66 13 4.32 13 5 C13.99 5.33 14.98 5.66 16 6 C10.03435204 5.49228528 5.36190101 3.61407872 0 1 C0 0.67 0 0.34 0 0 Z " fill="#4175A5" transform="translate(81,224)"/>
<path d="M0 0 C0.99 0.33 1.98 0.66 3 1 C0.19195732 3.96404505 -2.18315774 6.44499019 -6 8 C-5.67 6.35 -5.34 4.7 -5 3 C-4.01 2.67 -3.02 2.34 -2 2 C-1.34 2.33 -0.68 2.66 0 3 C0 2.01 0 1.02 0 0 Z " fill="#3A77AC" transform="translate(193,209)"/>
<path d="M0 0 C0.66 0 1.32 0 2 0 C2 2.64 2 5.28 2 8 C0.68 8 -0.64 8 -2 8 C-1.125 1.125 -1.125 1.125 0 0 Z " fill="#2478C5" transform="translate(139,146)"/>
<path d="M0 0 C0.33 0.99 0.66 1.98 1 3 C0.01 3.66 -0.98 4.32 -2 5 C-3.20450304 7.55183404 -3.20450304 7.55183404 -4 10 C-4.99 10 -5.98 10 -7 10 C-5.6062718 5.56541027 -3.39417765 3.12621626 0 0 Z " fill="#3B73A6" transform="translate(119,112)"/>
<path d="M0 0 C0.66 0.33 1.32 0.66 2 1 C1.484375 1.391875 0.96875 1.78375 0.4375 2.1875 C-0.036875 2.785625 -0.51125 3.38375 -1 4 C-0.76956136 6.65466049 -0.76956136 6.65466049 0 9 C-2.97 8.505 -2.97 8.505 -6 8 C-4.55746343 4.63408134 -2.66735273 2.48952921 0 0 Z " fill="#3B75B0" transform="translate(103,85)"/>
<path d="M0 0 C2.64 1.98 5.28 3.96 8 6 C7.01 6.66 6.02 7.32 5 8 C3.0625 7.375 3.0625 7.375 1 6 C0.25 2.875 0.25 2.875 0 0 Z " fill="#3572A8" transform="translate(188,39)"/>
<path d="M0 0 C0.33 1.32 0.66 2.64 1 4 C-2.76624671 5.25541557 -4.37188934 4.37061958 -8 3 C-8 2.34 -8 1.68 -8 1 C-5.36 0.67 -2.72 0.34 0 0 Z " fill="#3B77AF" transform="translate(126,186)"/>
<path d="M0 0 C3.91939465 3.80411834 7.49102731 7.81576108 11 12 C6.26424463 9.79333952 2.93272654 6.99869973 0.6875 2.1875 C0.460625 1.465625 0.23375 0.74375 0 0 Z " fill="#336A9B" transform="translate(81,165)"/>
<path d="M0 0 C0.97608217 2.92824652 1.08226668 4.95613276 1 8 C-0.98 8.33 -2.96 8.66 -5 9 C-3.50163895 5.88801935 -1.80066242 2.9465385 0 0 Z " fill="#3772A5" transform="translate(178,141)"/>
<path d="M0 0 C0 4.71449589 -3.07505492 7.049362 -6.25 10.3125 C-7.11625 11.1478125 -7.11625 11.1478125 -8 12 C-8 8.03869629 -6.65122875 7.17085599 -4 4.3125 C-3.2575 3.50425781 -2.515 2.69601563 -1.75 1.86328125 C-1.1725 1.24839844 -0.595 0.63351563 0 0 Z " fill="#3D71A5" transform="translate(51,53)"/>
<path d="M0 0 C0.99 0.33 1.98 0.66 3 1 C3 1.66 3 2.32 3 3 C2.01 3.495 2.01 3.495 1 4 C1.33 4.66 1.66 5.32 2 6 C-1.37503669 4.8141763 -3.64722731 3.72426311 -6 1 C-3.03 1.495 -3.03 1.495 0 2 C0 1.34 0 0.68 0 0 Z " fill="#3B77AE" transform="translate(77,217)"/>
<path d="M0 0 C-0.33 0.99 -0.66 1.98 -1 3 C-1.93972656 2.98259766 -1.93972656 2.98259766 -2.8984375 2.96484375 C-4.12433594 2.95130859 -4.12433594 2.95130859 -5.375 2.9375 C-6.59316406 2.92009766 -6.59316406 2.92009766 -7.8359375 2.90234375 C-10.04937142 2.85533666 -10.04937142 2.85533666 -12 4 C-12.66 3.34 -13.32 2.68 -14 2 C-12.4176994 1.66179834 -10.83410625 1.32964061 -9.25 1 C-8.36828125 0.814375 -7.4865625 0.62875 -6.578125 0.4375 C-4 0 -4 0 0 0 Z " fill="#3674A9" transform="translate(142,185)"/>
<path d="M0 0 C0.33 0.66 0.66 1.32 1 2 C1.99 2.33 2.98 2.66 4 3 C-0.75 7.875 -0.75 7.875 -3 9 C-3.125 6.625 -3.125 6.625 -3 4 C-2.34 3.34 -1.68 2.68 -1 2 C-0.67 1.34 -0.34 0.68 0 0 Z " fill="#3B75AF" transform="translate(92,80)"/>
<path d="M0 0 C2.96404505 2.80804268 5.44499019 5.18315774 7 9 C5.35 8.67 3.7 8.34 2 8 C2.33 6.68 2.66 5.36 3 4 C2.01 3.67 1.02 3.34 0 3 C0 2.01 0 1.02 0 0 Z " fill="#3871A1" transform="translate(210,60)"/>
<path d="M0 0 C2.475 0.99 2.475 0.99 5 2 C5 2.66 5 3.32 5 4 C2.625 4.625 2.625 4.625 0 5 C-0.66 4.34 -1.32 3.68 -2 3 C-1.34 2.01 -0.68 1.02 0 0 Z " fill="#3474B4" transform="translate(106,171)"/>
<path d="M0 0 C0.66 0 1.32 0 2 0 C2 0.66 2 1.32 2 2 C2.99 1.67 3.98 1.34 5 1 C5.625 2.875 5.625 2.875 6 5 C5.34 5.66 4.68 6.32 4 7 C0 1.125 0 1.125 0 0 Z " fill="#3777B6" transform="translate(34,179)"/>
<path d="M0 0 C0.33 0 0.66 0 1 0 C1.33 3.63 1.66 7.26 2 11 C1.34 10.67 0.68 10.34 0 10 C0 8.02 0 6.04 0 4 C-0.99 4.33 -1.98 4.66 -3 5 C-1.125 1.125 -1.125 1.125 0 0 Z " fill="#3F6F9B" transform="translate(141,142)"/>
<path d="M0 0 C-0.99 0.495 -0.99 0.495 -2 1 C-1.67 1.99 -1.34 2.98 -1 4 C-1.99 4 -2.98 4 -4 4 C-4 3.34 -4 2.68 -4 2 C-5.65 2.33 -7.3 2.66 -9 3 C-6.38997624 -0.48003168 -4.1689578 -0.27793052 0 0 Z " fill="#3475B1" transform="translate(80,35)"/>
</svg>
