<?xml version="1.0" encoding="UTF-8"?>
<svg version="1.1" xmlns="http://www.w3.org/2000/svg" width="211" height="216">
<path d="M0 0 C1.2367598 -0.01441132 1.2367598 -0.01441132 2.49850464 -0.02911377 C3.38603424 -0.03336365 4.27356384 -0.03761353 5.18798828 -0.04199219 C6.10411896 -0.04769226 7.02024963 -0.05339233 7.96414185 -0.05926514 C9.90251512 -0.06871046 11.84090442 -0.07524726 13.77929688 -0.07910156 C16.7400318 -0.0888073 19.70007251 -0.11983505 22.66064453 -0.15136719 C24.544755 -0.15789748 26.42887042 -0.16314785 28.31298828 -0.16699219 C29.19646942 -0.17933899 30.07995056 -0.19168579 30.99020386 -0.20440674 C35.68959862 -0.18743134 39.2471781 -0.16577491 42.88330078 3.16113281 C45.29503332 8.04012371 45.18996535 12.95955349 45.18408203 18.28613281 C45.18836716 19.15125488 45.19265228 20.01637695 45.19706726 20.90771484 C45.20278904 22.72980884 45.20332675 24.55192566 45.19897461 26.37402344 C45.19581071 29.15241585 45.21931389 31.92974649 45.24462891 34.70800781 C45.24690182 36.48404814 45.24760543 38.26009132 45.24658203 40.03613281 C45.25579178 40.86129395 45.26500153 41.68645508 45.27449036 42.53662109 C45.2351373 47.47099146 44.65596811 50.90637538 41.88330078 55.16113281 C38.16271718 57.64152188 36.28533508 57.62450484 31.88330078 57.16113281 C29.19672064 55.05543487 27.78262194 53.01011456 25.88330078 50.16113281 C25.71397128 47.63841023 25.64993253 45.24155865 25.69580078 42.72363281 C25.70546875 40.74556641 25.70546875 40.74556641 25.71533203 38.72753906 C25.84692167 35.93355451 26.15371666 33.80983248 26.88330078 31.16113281 C20.66725245 36.42607668 14.87409813 42.03804602 9.13330078 47.81347656 C7.78522339 49.16367638 7.78522339 49.16367638 6.40991211 50.54115295 C4.04743503 52.90824545 1.68714966 55.27747921 -0.67205811 57.64782715 C-3.09055103 60.07664023 -5.51195868 62.50254384 -7.93310547 64.92871094 C-12.66362876 69.67020651 -17.39127895 74.4145518 -22.11669922 79.16113281 C-21.69952637 79.90081299 -21.28235352 80.64049316 -20.85253906 81.40258789 C-20.30807129 82.38122803 -19.76360352 83.35986816 -19.20263672 84.36816406 C-18.39125244 85.81799683 -18.39125244 85.81799683 -17.56347656 87.29711914 C-12.59729865 97.12807308 -13.43648658 106.77573238 -16.78857422 116.97363281 C-20.98347764 127.04140103 -29.10479674 134.23249891 -39.00341797 138.39941406 C-49.69577988 142.25340773 -60.74501126 140.62277853 -70.9765625 136.39208984 C-73.22973493 135.91001784 -73.22973493 135.91001784 -75.11547852 137.57641602 C-75.80037354 138.28113037 -76.48526855 138.98584473 -77.19091797 139.71191406 C-77.94050781 140.47310547 -78.69009766 141.23429688 -79.46240234 142.01855469 C-80.6215918 143.23381836 -80.6215918 143.23381836 -81.80419922 144.47363281 C-82.58859375 145.27220703 -83.37298828 146.07078125 -84.18115234 146.89355469 C-88.1026392 150.69128761 -88.1026392 150.69128761 -91.11669922 155.16113281 C-90.02035156 155.58072266 -90.02035156 155.58072266 -88.90185547 156.00878906 C-86.34064501 157.06847642 -83.98716846 158.27717236 -81.55419922 159.59863281 C-65.11390557 167.91693064 -47.72158173 167.40748632 -30.45654297 162.38769531 C-14.01125287 156.55830793 -0.92819857 143.44834308 6.88330078 128.16113281 C13.39007024 112.94732793 13.17429462 96.65618621 7.88330078 81.16113281 C7.25485022 77.48020807 7.66818633 76.47339572 9.82080078 73.34863281 C13.4349165 70.76712158 15.4587088 70.46352374 19.80126953 70.75878906 C21.88330078 71.16113281 21.88330078 71.16113281 24.25830078 72.53613281 C26.72249876 76.51676032 27.80034404 80.63065699 28.88330078 85.16113281 C29.09083984 86.0209375 29.29837891 86.88074219 29.51220703 87.76660156 C33.89137262 108.49873514 28.72247862 128.27280266 17.96142578 146.14550781 C14.14921788 151.67750875 9.62084714 156.41684741 4.88330078 161.16113281 C4.15240234 161.90363281 3.42150391 162.64613281 2.66845703 163.41113281 C-7.12588663 172.74950144 -19.28268621 178.30468365 -32.11669922 182.16113281 C-33.30392578 182.53044922 -33.30392578 182.53044922 -34.51513672 182.90722656 C-55.47686381 188.23959573 -78.79354958 182.69880344 -97.11669922 172.16113281 C-100.58169922 169.68613281 -100.58169922 169.68613281 -104.11669922 167.16113281 C-109.06669922 172.11113281 -114.01669922 177.06113281 -119.11669922 182.16113281 C-113.41828049 182.25243539 -113.41828049 182.25243539 -107.71948242 182.27880859 C-102.00077298 182.48275046 -102.00077298 182.48275046 -99.44091797 184.44702148 C-97.26277946 186.96004879 -96.15752661 188.96107858 -95.49169922 192.22363281 C-96.34123208 196.21643724 -97.92569214 197.67923842 -101.11669922 200.16113281 C-105.50486182 201.43453695 -109.98884907 201.33916219 -114.52294922 201.36425781 C-115.72643005 201.37280792 -115.72643005 201.37280792 -116.95422363 201.38153076 C-118.64525038 201.39094683 -120.3362952 201.3975012 -122.02734375 201.40136719 C-124.60823457 201.41110089 -127.18833778 201.44216679 -129.76904297 201.47363281 C-131.41617368 201.4801611 -133.06331006 201.48541225 -134.71044922 201.48925781 C-135.47828735 201.50160461 -136.24612549 201.51395142 -137.03723145 201.52667236 C-141.58578631 201.50782441 -144.52416022 201.01344169 -148.11669922 198.16113281 C-150.16391175 195.09031402 -150.37157542 194.42323098 -150.40722656 190.95263672 C-150.41998627 190.10810944 -150.43274597 189.26358215 -150.44589233 188.39346313 C-150.44811798 187.48405975 -150.45034363 186.57465637 -150.45263672 185.63769531 C-150.45929352 184.69936859 -150.46595032 183.76104187 -150.47280884 182.79428101 C-150.48293539 180.80883749 -150.48762586 178.82335994 -150.48730469 176.83789062 C-150.49167286 173.80444009 -150.52797843 170.77245038 -150.56591797 167.73925781 C-150.57178716 165.80957528 -150.57575587 163.87988585 -150.57763672 161.95019531 C-150.59200775 161.04484039 -150.60637878 160.13948547 -150.6211853 159.20669556 C-150.59102143 155.03583656 -150.46959623 152.74506111 -148.27148438 149.10791016 C-145.50686523 146.61016791 -143.82065447 146.23672374 -140.11669922 146.16113281 C-137.42919922 146.66113281 -137.42919922 146.66113281 -135.11669922 148.16113281 C-131.10303844 155.0812376 -131.56390756 161.3971745 -133.11669922 169.16113281 C-132.49126221 168.5356958 -131.8658252 167.91025879 -131.22143555 167.26586914 C-116.18652344 152.23095703 -101.15161133 137.19604492 -86.11669922 122.16113281 C-86.39928589 121.4181897 -86.68187256 120.67524658 -86.97302246 119.90979004 C-87.33947876 118.92861206 -87.70593506 117.94743408 -88.08349609 116.93652344 C-88.44858276 115.96670532 -88.81366943 114.99688721 -89.18981934 113.99768066 C-90.44769597 110.14817725 -90.72843126 106.68204764 -90.61669922 102.66113281 C-90.59530884 101.56949829 -90.59530884 101.56949829 -90.57348633 100.45581055 C-90.16797247 90.02220476 -86.82487416 82.91340179 -79.55419922 75.39160156 C-71.26479001 67.80626077 -63.84555531 64.80775262 -52.67919922 64.97363281 C-51.85871094 64.97427734 -51.03822266 64.97492188 -50.19287109 64.97558594 C-46.33895979 65.00326766 -43.33498137 65.09453002 -39.60888672 66.23144531 C-34.4843662 66.12826705 -32.5640142 63.42458461 -29.10302734 59.85058594 C-27.90323242 58.55024414 -27.90323242 58.55024414 -26.67919922 57.22363281 C-25.85226563 56.36060547 -25.02533203 55.49757812 -24.17333984 54.60839844 C-22.13533045 52.47614583 -20.11825059 50.3275514 -18.11669922 48.16113281 C-19.52787185 47.3614494 -20.94102467 46.56525982 -22.35498047 45.77050781 C-23.14171143 45.32674805 -23.92844238 44.88298828 -24.73901367 44.42578125 C-38.87647348 36.90631911 -59.01582289 36.77654779 -74.20654297 41.05957031 C-91.8752312 47.74758384 -105.13819301 59.60177808 -113.12451172 76.78613281 C-116.75219374 85.46971813 -118.31331455 93.57556 -118.30419922 103.03613281 C-118.30484375 103.73794678 -118.30548828 104.43976074 -118.30615234 105.1628418 C-118.25952321 109.74574418 -117.73382517 113.85873411 -116.58154297 118.27441406 C-115.81130176 121.40068719 -115.6878229 123.97519446 -116.11669922 127.16113281 C-118.05419922 130.16113281 -118.05419922 130.16113281 -121.11669922 132.16113281 C-124.33424743 132.53899435 -127.10614749 132.37827895 -130.11669922 131.16113281 C-134.08018238 127.37618493 -135.06838298 123.41352341 -135.86669922 118.16113281 C-135.98811279 117.41001221 -136.10952637 116.6588916 -136.23461914 115.88500977 C-139.24352451 95.95339382 -135.28362297 75.11363471 -124.11669922 58.16113281 C-121.28456541 54.33406723 -118.27839633 50.71940018 -115.11669922 47.16113281 C-114.49021484 46.45085938 -113.86373047 45.74058594 -113.21826172 45.00878906 C-98.27704442 29.09040355 -76.66492966 19.55798815 -54.9230957 18.74145508 C-39.60157766 18.60450506 -22.30095952 22.48379154 -9.36669922 31.09863281 C-6.47263226 33.40038402 -6.47263226 33.40038402 -4.11572266 32.97387695 C-1.82131078 32.04103656 -0.60365314 30.99269535 1.11767578 29.21972656 C1.69130859 28.63642578 2.26494141 28.053125 2.85595703 27.45214844 C3.73574219 26.5346582 3.73574219 26.5346582 4.63330078 25.59863281 C5.53628906 24.6753418 5.53628906 24.6753418 6.45751953 23.73339844 C7.93964459 22.21598469 9.41239748 20.68942685 10.88330078 19.16113281 C9.71412109 19.15855469 8.54494141 19.15597656 7.34033203 19.15332031 C5.7921171 19.11578783 4.24394073 19.07664015 2.69580078 19.03613281 C1.926875 19.03871094 1.15794922 19.04128906 0.36572266 19.04394531 C-5.24249759 18.85138839 -5.24249759 18.85138839 -7.74804688 16.87304688 C-9.83901059 14.43973393 -11.10327433 12.20140748 -12.11669922 9.16113281 C-11.09346956 5.75036727 -9.91206072 3.39742201 -7.11669922 1.16113281 C-4.40673548 0.25781157 -2.78800159 0.0262796 0 0 Z " fill="#1E83F8" transform="translate(157.11669921875,7.8388671875)"/>
<path d="M0 0 C0.66 0 1.32 0 2 0 C2.99 1.98 2.99 1.98 4 4 C4.66 3.34 5.32 2.68 6 2 C6.4021875 3.4540625 6.4021875 3.4540625 6.8125 4.9375 C7.4003125 6.4534375 7.4003125 6.4534375 8 8 C8.99 8.33 9.98 8.66 11 9 C9.35 9.33 7.7 9.66 6 10 C5.67 10.99 5.34 11.98 5 13 C6.81725675 15.82684384 8.03937946 17.65310925 11.25 18.8125 C12.11625 18.9053125 12.11625 18.9053125 13 19 C13 19.66 13 20.32 13 21 C13.66 21.103125 14.32 21.20625 15 21.3125 C18.83841009 22.19213564 22.33096691 23.56969896 26 25 C24.375 26.1875 24.375 26.1875 22 27 C20 26 18 25 16 24 C12.81582164 25.12986974 10.73159291 27.01167001 8.36328125 29.37109375 C7.70392578 30.02787109 7.04457031 30.68464844 6.36523438 31.36132812 C5.34913086 32.3890332 5.34913086 32.3890332 4.3125 33.4375 C3.62349609 34.11876953 2.93449219 34.80003906 2.22460938 35.50195312 C1.24137695 36.48905273 1.24137695 36.48905273 0.23828125 37.49609375 C-0.35944092 38.09607178 -0.95716309 38.6960498 -1.57299805 39.31420898 C-3.22411263 41.05305211 -3.22411263 41.05305211 -4 44 C8.1664538 51.91743197 19.18674429 55.19987566 33.625 55.25 C34.6061377 55.25394775 35.58727539 55.25789551 36.59814453 55.26196289 C42.93957082 55.21103407 48.48864069 54.46515239 54.578125 52.6171875 C58.45334462 51.62963153 61.15553694 51.93209359 65 53 C66.5 55.0625 66.5 55.0625 67 57 C67.99 56.67 68.98 56.34 70 56 C70.36339166 60.48183042 70.36339166 60.48183042 68.9453125 62.50390625 C66.14299843 64.6590996 63.01632047 65.57685828 59.6875 66.625 C59.03587891 66.8415625 58.38425781 67.058125 57.71289062 67.28125 C37.10468175 73.96499342 14.82408124 70.25129134 -4.23779297 60.9140625 C-8.90952555 58.49081967 -13.27390124 55.72609876 -17 52 C-17.48210938 52.5775 -17.96421875 53.155 -18.4609375 53.75 C-19.09257813 54.4925 -19.72421875 55.235 -20.375 56 C-21.00148437 56.7425 -21.62796875 57.485 -22.2734375 58.25 C-22.84320313 58.8275 -23.41296875 59.405 -24 60 C-24.66 60 -25.32 60 -26 60 C-26 60.66 -26 61.32 -26 62 C-28.00398137 63.85636667 -30.12124992 65.53496304 -32.25 67.24609375 C-34.35315902 68.94100775 -34.35315902 68.94100775 -34 72 C-33.40985107 72.0093457 -32.81970215 72.01869141 -32.21166992 72.02832031 C-29.53609795 72.08202657 -26.86227447 72.16566852 -24.1875 72.25 C-23.25873047 72.26417969 -22.32996094 72.27835937 -21.37304688 72.29296875 C-20.48037109 72.32519531 -19.58769531 72.35742188 -18.66796875 72.390625 C-17.84578857 72.41157227 -17.0236084 72.43251953 -16.17651367 72.45410156 C-14 73 -14 73 -12.23168945 74.84667969 C-10.56613235 77.7585159 -10.57857918 79.69887021 -11 83 C-12.54264483 85.02547246 -13.4553201 85.88395706 -15.96629333 86.41891479 C-17.08403893 86.4491423 -17.08403893 86.4491423 -18.22436523 86.47998047 C-19.07212021 86.5094577 -19.91987518 86.53893494 -20.7933197 86.56930542 C-21.70586014 86.58510651 -22.61840057 86.60090759 -23.55859375 86.6171875 C-24.96964134 86.65478683 -24.96964134 86.65478683 -26.40919495 86.69314575 C-28.3986896 86.7421204 -30.38837887 86.78366766 -32.37817383 86.81835938 C-35.42302877 86.87473208 -38.46579007 86.96309493 -41.50976562 87.0546875 C-43.4426657 87.09828728 -45.37560906 87.14001628 -47.30859375 87.1796875 C-48.67436806 87.22160721 -48.67436806 87.22160721 -50.06773376 87.26437378 C-53.50241863 87.30701643 -56.31837959 87.23772045 -59.57470703 86.10205078 C-62.03905817 82.46757609 -61.54735925 78.46595201 -61.49609375 74.1875 C-61.49754898 73.22223389 -61.49900421 72.25696777 -61.50050354 71.26245117 C-61.49884343 69.22148623 -61.48726968 67.18050891 -61.46655273 65.13964844 C-61.43760947 62.01183005 -61.44593917 58.88570701 -61.45898438 55.7578125 C-61.45274676 53.77603341 -61.44435564 51.79425968 -61.43359375 49.8125 C-61.43652939 48.87494873 -61.43946503 47.93739746 -61.44248962 46.97143555 C-61.42980545 46.10043213 -61.41712128 45.22942871 -61.40405273 44.33203125 C-61.39864975 43.56608643 -61.39324677 42.8001416 -61.38768005 42.01098633 C-60.89830916 39.47250604 -60.01174347 38.57606325 -58 37 C-55.20118956 36.4845755 -52.88240605 36.77123762 -50 37 C-48 39 -48 39 -47.77294922 40.97119141 C-47.78865967 42.1494751 -47.78865967 42.1494751 -47.8046875 43.3515625 C-47.81435547 44.62773437 -47.81435547 44.62773437 -47.82421875 45.9296875 C-47.84097656 46.81914062 -47.85773437 47.70859375 -47.875 48.625 C-47.88402344 49.5221875 -47.89304687 50.419375 -47.90234375 51.34375 C-47.9259503 53.56276586 -47.9588769 55.78125077 -48 58 C-46.35 58.33 -44.7 58.66 -43 59 C-42.7525 58.38125 -42.505 57.7625 -42.25 57.125 C-40.76259631 54.59641373 -39.56321991 54.28160996 -37 53 C-36.29848848 51.6846659 -35.63474075 50.34882408 -35 49 C-33 46.75 -33 46.75 -31 45 C-30.34 45 -29.68 45 -29 45 C-29 44.34 -29 43.68 -29 43 C-28.34 43 -27.68 43 -27 43 C-26.7628125 42.43796875 -26.525625 41.8759375 -26.28125 41.296875 C-24.71052303 38.48105958 -22.78528536 36.52044584 -20.5 34.25 C-19.7059375 33.45078125 -18.911875 32.6515625 -18.09375 31.828125 C-16 30 -16 30 -14 30 C-13.59793335 29.1035376 -13.59793335 29.1035376 -13.18774414 28.18896484 C-11.98815841 25.97817642 -10.83560494 24.66865446 -8.99609375 22.9765625 C-8.42052734 22.43 -7.84496094 21.8834375 -7.25195312 21.3203125 C-6.04411389 20.19178241 -4.83055777 19.06933952 -3.61132812 17.953125 C-0.74380831 15.21111952 0.8228157 13.60429929 1.9609375 9.72265625 C2.00317485 6.77871295 1.4635034 5.49656462 0 3 C0 2.01 0 1.02 0 0 Z " fill="#1E83F7" transform="translate(70,120)"/>
<path d="M0 0 C0.86496094 0.34675781 1.72992188 0.69351563 2.62109375 1.05078125 C4.78565595 1.97134219 6.89400868 2.95357188 9 4 C10.010625 4.495 11.02125 4.99 12.0625 5.5 C12.701875 5.995 13.34125 6.49 14 7 C14 8.32 14 9.64 14 11 C12.58323316 12.28497457 11.15276374 13.56037405 9.63671875 14.7265625 C6.56339644 17.11773929 3.83134932 19.91562558 1.46386719 23.00366211 C-1.39863056 26.43592951 -3.5323146 28.71559888 -8.02001953 29.58520508 C-11.50088259 29.64338178 -14.90282317 29.50127596 -18.375 29.25 C-28.63519579 28.63846515 -36.04137521 29.07520765 -44.76953125 34.82421875 C-52.49572089 41.87085825 -57.29717281 49.64084252 -58.18359375 60.18359375 C-58.35661052 66.05598638 -57.95148549 72.74976728 -54.8671875 77.88671875 C-53.5424555 81.11500709 -53.88934981 82.68012172 -55 86 C-57.17797571 88.77654351 -59.68079389 91.15054286 -62.25 93.5625 C-62.91902344 94.20896484 -63.58804688 94.85542969 -64.27734375 95.52148438 C-65.58478433 96.78397365 -66.89684542 98.04169845 -68.21386719 99.29418945 C-70.51458517 101.49144431 -72.75819141 103.74283655 -75 106 C-75.72703125 106.71542969 -76.4540625 107.43085938 -77.203125 108.16796875 C-77.87859375 108.83441406 -78.5540625 109.50085938 -79.25 110.1875 C-79.93578125 110.86167969 -80.6215625 111.53585938 -81.328125 112.23046875 C-83.07449111 113.90798995 -83.07449111 113.90798995 -84 116 C-84.66 116 -85.32 116 -86 116 C-86 116.66 -86 117.32 -86 118 C-87.35546875 119.33203125 -87.35546875 119.33203125 -89.1875 120.8125 C-93.28121646 124.21011892 -97.03214613 127.54821919 -100 132 C-101.65 131.67 -103.3 131.34 -105 131 C-105.02505615 130.42967041 -105.0501123 129.85934082 -105.07592773 129.27172852 C-105.19156549 126.70173843 -105.31443624 124.13214473 -105.4375 121.5625 C-105.49647461 120.21575195 -105.49647461 120.21575195 -105.55664062 118.84179688 C-105.59853516 117.98779297 -105.64042969 117.13378906 -105.68359375 116.25390625 C-105.72025146 115.46314697 -105.75690918 114.6723877 -105.79467773 113.85766602 C-105.80563257 111.98598559 -105.80563257 111.98598559 -107 111 C-111.01657143 110.77081758 -111.01657143 110.77081758 -115 111 C-117.4035833 113.4035833 -117.25506049 113.95412429 -117.2746582 117.234375 C-117.28419022 118.10868164 -117.29372223 118.98298828 -117.30354309 119.88378906 C-117.30263168 120.82963867 -117.30172028 121.77548828 -117.30078125 122.75 C-117.30506638 123.71905273 -117.3093515 124.68810547 -117.31376648 125.68652344 C-117.31951558 127.73762225 -117.32000579 129.78874146 -117.31567383 131.83984375 C-117.31251272 134.98733072 -117.33596993 138.13387927 -117.36132812 141.28125 C-117.36360085 143.27083214 -117.36430474 145.26041682 -117.36328125 147.25 C-117.37709587 148.66877441 -117.37709587 148.66877441 -117.39118958 150.11621094 C-117.38496078 150.99051758 -117.37873199 151.86482422 -117.37231445 152.765625 C-117.37294388 153.53680664 -117.3735733 154.30798828 -117.3742218 155.10253906 C-117.18898201 156.04178223 -117.18898201 156.04178223 -117 157 C-113.87373216 159.08417856 -113.27456946 159.24300971 -109.74389648 159.16699219 C-108.88968613 159.15327576 -108.03547577 159.13955933 -107.15538025 159.12542725 C-106.2365657 159.099505 -105.31775116 159.07358276 -104.37109375 159.046875 C-102.95293114 159.01645111 -102.95293114 159.01645111 -101.50611877 158.9854126 C-99.50794479 158.93984232 -97.50988369 158.88906974 -95.51196289 158.83349609 C-92.44627779 158.75023839 -89.38068049 158.68843509 -86.31445312 158.62890625 C-84.37496845 158.58201658 -82.43551339 158.5338818 -80.49609375 158.484375 C-79.57525497 158.46654968 -78.6544162 158.44872437 -77.70567322 158.43035889 C-76.85461502 158.40403381 -76.00355682 158.37770874 -75.12670898 158.35058594 C-74.00110817 158.32155182 -74.00110817 158.32155182 -72.85276794 158.29193115 C-70.75538508 158.14767305 -70.75538508 158.14767305 -69 156 C-68.65509678 151.94738713 -68.69836118 150.45245824 -71 147 C-73.21932277 146.49223956 -73.21932277 146.49223956 -75.7890625 146.48828125 C-76.73007813 146.45283203 -77.67109375 146.41738281 -78.640625 146.38085938 C-80.11789063 146.34702148 -80.11789063 146.34702148 -81.625 146.3125 C-82.61757812 146.27833984 -83.61015625 146.24417969 -84.6328125 146.20898438 C-87.08842906 146.12634343 -89.54368141 146.05724873 -92 146 C-92.33 145.01 -92.66 144.02 -93 143 C-91.71451591 141.66070495 -90.42141845 140.32871357 -89.125 139 C-88.40570313 138.2575 -87.68640625 137.515 -86.9453125 136.75 C-85 135 -85 135 -83 135 C-83 134.34 -83 133.68 -83 133 C-82.34 133 -81.68 133 -81 133 C-80.773125 132.443125 -80.54625 131.88625 -80.3125 131.3125 C-78.64103234 128.36753316 -76.44723648 126.31843456 -74 124 C-73.59040039 124.38454346 -73.18080078 124.76908691 -72.75878906 125.1652832 C-68.40030061 129.09830016 -64.08828661 131.78384497 -58.75 134.1875 C-57.63564575 134.70002319 -57.63564575 134.70002319 -56.4987793 135.22290039 C-50.81146475 137.77655208 -45.13027871 139.78994498 -39 141 C-38.12988281 141.18175781 -37.25976562 141.36351562 -36.36328125 141.55078125 C-19.09306914 143.85748786 -2.62514468 141.81257234 13 134 C12.67 132.68 12.34 131.36 12 130 C11.34 130 10.68 130 10 130 C9.34 129.01 8.68 128.02 8 127 C3.02240966 125.70951362 -0.23712651 125.94712239 -5.125 127.4375 C-22.10479388 132.12530569 -39.93540123 129.39546309 -55.40625 121.59765625 C-58.0201126 119.98761136 -59.93322387 118.25688054 -62 116 C-58.45052761 116.68645457 -55.66863952 118.16291252 -52.5 119.875 C-35.55689772 128.50170775 -18.25507645 128.43539668 -0.33984375 123.2265625 C16.10544635 117.39717511 29.18850065 104.28721026 37 89 C43.50676946 73.78619511 43.29099384 57.4950534 38 42 C37.37154943 38.31907526 37.78488555 37.31226291 39.9375 34.1875 C43.55161572 31.60598877 45.57540802 31.30239093 49.91796875 31.59765625 C52 32 52 32 54.375 33.375 C56.83919798 37.35562751 57.91704326 41.46952418 59 46 C59.20753906 46.85980469 59.41507813 47.71960938 59.62890625 48.60546875 C64.00807184 69.33760232 58.83917784 89.11166985 48.078125 106.984375 C44.2659171 112.51637594 39.73754636 117.2557146 35 122 C34.26910156 122.7425 33.53820312 123.485 32.78515625 124.25 C22.99081259 133.58836863 10.83401301 139.14355084 -2 143 C-3.18722656 143.36931641 -3.18722656 143.36931641 -4.3984375 143.74609375 C-25.36016459 149.07846292 -48.67685036 143.53767063 -67 133 C-70.465 130.525 -70.465 130.525 -74 128 C-78.95 132.95 -83.9 137.9 -89 143 C-83.30158127 143.09130257 -83.30158127 143.09130257 -77.6027832 143.11767578 C-71.88407376 143.32161765 -71.88407376 143.32161765 -69.32421875 145.28588867 C-67.14608024 147.79891597 -66.04082739 149.79994577 -65.375 153.0625 C-66.22453286 157.05530443 -67.80899293 158.51810561 -71 161 C-75.3881626 162.27340413 -79.87214985 162.17802938 -84.40625 162.203125 C-85.60973083 162.21167511 -85.60973083 162.21167511 -86.83752441 162.22039795 C-88.52855116 162.22981402 -90.21959598 162.23636838 -91.91064453 162.24023438 C-94.49153535 162.24996808 -97.07163856 162.28103398 -99.65234375 162.3125 C-101.29947446 162.31902829 -102.94661084 162.32427944 -104.59375 162.328125 C-105.36158813 162.3404718 -106.12942627 162.3528186 -106.92053223 162.36553955 C-111.46908709 162.3466916 -114.407461 161.85230887 -118 159 C-120.04721253 155.9291812 -120.2548762 155.26209817 -120.29052734 151.79150391 C-120.30328705 150.94697662 -120.31604675 150.10244934 -120.32919312 149.23233032 C-120.33141876 148.32292694 -120.33364441 147.41352356 -120.3359375 146.4765625 C-120.3425943 145.53823578 -120.3492511 144.59990906 -120.35610962 143.63314819 C-120.36623617 141.64770468 -120.37092664 139.66222713 -120.37060547 137.67675781 C-120.37497364 134.64330728 -120.41127921 131.61131757 -120.44921875 128.578125 C-120.45508794 126.64844247 -120.45905665 124.71875304 -120.4609375 122.7890625 C-120.47530853 121.88370758 -120.48967957 120.97835266 -120.50448608 120.04556274 C-120.47432221 115.87470375 -120.35289701 113.58392829 -118.15478516 109.94677734 C-115.39016601 107.4490351 -113.70395525 107.07559092 -110 107 C-107.3125 107.5 -107.3125 107.5 -105 109 C-100.98633922 115.92010479 -101.44720834 122.23604169 -103 130 C-102.37456299 129.37456299 -101.74912598 128.74912598 -101.10473633 128.10473633 C-86.06982422 113.06982422 -71.03491211 98.03491211 -56 83 C-56.28258667 82.25705688 -56.56517334 81.51411377 -56.85632324 80.74865723 C-57.22277954 79.76747925 -57.58923584 78.78630127 -57.96679688 77.77539062 C-58.33188354 76.80557251 -58.69697021 75.83575439 -59.07312012 74.83654785 C-60.33099675 70.98704444 -60.61173204 67.52091483 -60.5 63.5 C-60.47860962 62.40836548 -60.47860962 62.40836548 -60.45678711 61.29467773 C-60.05127325 50.86107195 -56.70817494 43.75226897 -49.4375 36.23046875 C-41.14809079 28.64512795 -33.72885609 25.64661981 -22.5625 25.8125 C-21.74201172 25.81314453 -20.92152344 25.81378906 -20.07617188 25.81445312 C-16.22226057 25.84213485 -13.21828215 25.93339721 -9.4921875 27.0703125 C-4.36766698 26.96713423 -2.44731499 24.2634518 1.01367188 20.68945312 C1.81353516 19.82255859 2.61339844 18.95566406 3.4375 18.0625 C4.26443359 17.19947266 5.09136719 16.33644531 5.94335938 15.44726562 C7.98136877 13.31501302 9.99844863 11.16641858 12 9 C10.58882736 8.20031659 9.17567455 7.404127 7.76171875 6.609375 C6.97498779 6.16561523 6.18825684 5.72185547 5.37768555 5.26464844 C-8.75977426 -2.2548137 -28.89912367 -2.38458502 -44.08984375 1.8984375 C-56.03605069 6.42035744 -66.29122941 13.7106447 -75 23 C-73.81786817 16.30125298 -67.62064267 12.3034744 -62.4375 8.4375 C-43.91217919 -4.07201102 -20.95537832 -8.44556513 0 0 Z " fill="#2963BA" transform="translate(127,47)"/>
<path d="M0 0 C1.2367598 -0.01441132 1.2367598 -0.01441132 2.49850464 -0.02911377 C3.38603424 -0.03336365 4.27356384 -0.03761353 5.18798828 -0.04199219 C6.10411896 -0.04769226 7.02024963 -0.05339233 7.96414185 -0.05926514 C9.90251512 -0.06871046 11.84090442 -0.07524726 13.77929688 -0.07910156 C16.7400318 -0.0888073 19.70007251 -0.11983505 22.66064453 -0.15136719 C24.544755 -0.15789748 26.42887042 -0.16314785 28.31298828 -0.16699219 C29.19646942 -0.17933899 30.07995056 -0.19168579 30.99020386 -0.20440674 C35.68959862 -0.18743134 39.2471781 -0.16577491 42.88330078 3.16113281 C45.29503332 8.04012371 45.18996535 12.95955349 45.18408203 18.28613281 C45.18836716 19.15125488 45.19265228 20.01637695 45.19706726 20.90771484 C45.20278904 22.72980884 45.20332675 24.55192566 45.19897461 26.37402344 C45.19581071 29.15241585 45.21931389 31.92974649 45.24462891 34.70800781 C45.24690182 36.48404814 45.24760543 38.26009132 45.24658203 40.03613281 C45.25579178 40.86129395 45.26500153 41.68645508 45.27449036 42.53662109 C45.2351373 47.47099146 44.65596811 50.90637538 41.88330078 55.16113281 C38.16271718 57.64152188 36.28533508 57.62450484 31.88330078 57.16113281 C29.19672064 55.05543487 27.78262194 53.01011456 25.88330078 50.16113281 C25.71397128 47.63841023 25.64993253 45.24155865 25.69580078 42.72363281 C25.70546875 40.74556641 25.70546875 40.74556641 25.71533203 38.72753906 C25.84692167 35.93355451 26.15371666 33.80983248 26.88330078 31.16113281 C20.66725245 36.42607668 14.87409813 42.03804602 9.13330078 47.81347656 C7.78522339 49.16367638 7.78522339 49.16367638 6.40991211 50.54115295 C4.04743503 52.90824545 1.68714966 55.27747921 -0.67205811 57.64782715 C-3.09055103 60.07664023 -5.51195868 62.50254384 -7.93310547 64.92871094 C-12.66362876 69.67020651 -17.39127895 74.4145518 -22.11669922 79.16113281 C-21.69952637 79.90081299 -21.28235352 80.64049316 -20.85253906 81.40258789 C-20.30807129 82.38122803 -19.76360352 83.35986816 -19.20263672 84.36816406 C-18.39125244 85.81799683 -18.39125244 85.81799683 -17.56347656 87.29711914 C-12.59729865 97.12807308 -13.43648658 106.77573238 -16.78857422 116.97363281 C-20.98347764 127.04140103 -29.10479674 134.23249891 -39.00341797 138.39941406 C-43.68612084 140.08726445 -47.9038748 140.2846127 -52.86669922 140.22363281 C-53.56408203 140.21912109 -54.26146484 140.21460938 -54.97998047 140.20996094 C-56.69225724 140.19823301 -58.40448955 140.18029934 -60.11669922 140.16113281 C-60.11669922 139.50113281 -60.11669922 138.84113281 -60.11669922 138.16113281 C-58.54082031 138.12246094 -58.54082031 138.12246094 -56.93310547 138.08300781 C-48.88046734 137.79513943 -42.2001346 137.34291997 -35.11669922 133.16113281 C-34.43349609 132.82339844 -33.75029297 132.48566406 -33.04638672 132.13769531 C-26.0950806 128.41094945 -21.57594739 122.2646562 -18.95263672 114.88769531 C-16.87462471 105.6240343 -16.30337798 95.23963248 -21.05419922 86.78613281 C-21.59947266 85.97402344 -22.14474609 85.16191406 -22.70654297 84.32519531 C-24.14288361 82.12094956 -24.81341463 80.75998285 -25.11669922 78.16113281 C-24.06007385 76.53688049 -24.06007385 76.53688049 -22.38452148 74.94067383 C-21.76380264 74.3364711 -21.1430838 73.73226837 -20.5035553 73.10975647 C-19.47868263 72.14712135 -19.47868263 72.14712135 -18.43310547 71.16503906 C-17.74361313 70.49447983 -17.05412079 69.82392059 -16.34373474 69.13304138 C-13.3860839 66.25734367 -10.40001948 63.41179103 -7.41625977 60.56323242 C-5.24510443 58.48235381 -3.08894493 56.38676231 -0.93310547 54.29003906 C-0.25188126 53.65030655 0.42934296 53.01057404 1.13121033 52.35145569 C4.84099667 48.89868092 4.84099667 48.89868092 6.30932617 44.21557617 C6.16873779 43.53760986 6.02814941 42.85964355 5.88330078 42.16113281 C6.54330078 41.83113281 7.20330078 41.50113281 7.88330078 41.16113281 C7.38830078 40.54238281 6.89330078 39.92363281 6.38330078 39.28613281 C4.88330078 37.16113281 4.88330078 37.16113281 4.88330078 35.16113281 C5.54330078 35.16113281 6.20330078 35.16113281 6.88330078 35.16113281 C7.21330078 34.50113281 7.54330078 33.84113281 7.88330078 33.16113281 C9.86330078 35.14113281 9.86330078 35.14113281 11.88330078 37.16113281 C13.00846163 35.32828838 13.00846163 35.32828838 13.88330078 33.16113281 C13.55330078 32.17113281 13.22330078 31.18113281 12.88330078 30.16113281 C10.90330078 30.65613281 10.90330078 30.65613281 8.88330078 31.16113281 C8.88330078 30.50113281 8.88330078 29.84113281 8.88330078 29.16113281 C8.09955078 29.65613281 7.31580078 30.15113281 6.50830078 30.66113281 C3.88330078 32.16113281 3.88330078 32.16113281 1.88330078 32.16113281 C1.55330078 34.80113281 1.22330078 37.44113281 0.88330078 40.16113281 C-3.2400743 39.80770066 -4.69022548 38.59925287 -7.41357422 35.62597656 C-23.41469162 21.8635476 -47.42594313 21.96300143 -67.11669922 23.16113281 C-72.09233634 23.73882851 -76.52518516 25.16433186 -81.11669922 27.16113281 C-82.05980957 27.56380371 -82.05980957 27.56380371 -83.02197266 27.97460938 C-107.28908676 38.54537833 -121.75997573 55.73117889 -131.47167969 80.09399414 C-133.03065182 85.09013989 -133.2774952 90.10774146 -133.43310547 95.30957031 C-133.45388657 95.96696198 -133.47466766 96.62435364 -133.49607849 97.30166626 C-133.56090675 99.37972643 -133.62014486 101.45790137 -133.67919922 103.53613281 C-133.7224481 104.95411292 -133.76606431 106.37208188 -133.81005859 107.79003906 C-133.9165184 111.24695161 -134.01796906 114.70398987 -134.11669922 118.16113281 C-133.45669922 118.16113281 -132.79669922 118.16113281 -132.11669922 118.16113281 C-131.78669922 121.46113281 -131.45669922 124.76113281 -131.11669922 128.16113281 C-127.81669922 128.49113281 -124.51669922 128.82113281 -121.11669922 129.16113281 C-118.8535293 125.76637794 -118.94624096 125.09311769 -119.42919922 121.22363281 C-119.57808594 119.94166016 -119.57808594 119.94166016 -119.72998047 118.63378906 C-120.06068165 116.23765737 -120.06068165 116.23765737 -120.62597656 114.24414062 C-124.36362547 98.37865779 -119.29954649 80.70374505 -111.11669922 67.16113281 C-109.81309915 65.47110843 -108.48715564 63.79741052 -107.11669922 62.16113281 C-106.45669922 62.49113281 -105.79669922 62.82113281 -105.11669922 63.16113281 C-105.48021484 63.62519531 -105.84373047 64.08925781 -106.21826172 64.56738281 C-109.83063326 69.53207806 -112.28175283 74.57194316 -114.42919922 80.28613281 C-114.68330566 80.95451172 -114.93741211 81.62289062 -115.19921875 82.31152344 C-117.66944882 89.12942561 -118.3111696 95.80175018 -118.30419922 103.03613281 C-118.30484375 103.73794678 -118.30548828 104.43976074 -118.30615234 105.1628418 C-118.25952321 109.74574418 -117.73382517 113.85873411 -116.58154297 118.27441406 C-115.81130176 121.40068719 -115.6878229 123.97519446 -116.11669922 127.16113281 C-118.05419922 130.16113281 -118.05419922 130.16113281 -121.11669922 132.16113281 C-124.33424743 132.53899435 -127.10614749 132.37827895 -130.11669922 131.16113281 C-134.08018238 127.37618493 -135.06838298 123.41352341 -135.86669922 118.16113281 C-135.98811279 117.41001221 -136.10952637 116.6588916 -136.23461914 115.88500977 C-139.24352451 95.95339382 -135.28362297 75.11363471 -124.11669922 58.16113281 C-121.28456541 54.33406723 -118.27839633 50.71940018 -115.11669922 47.16113281 C-114.49021484 46.45085938 -113.86373047 45.74058594 -113.21826172 45.00878906 C-98.27704442 29.09040355 -76.66492966 19.55798815 -54.9230957 18.74145508 C-39.60157766 18.60450506 -22.30095952 22.48379154 -9.36669922 31.09863281 C-6.47263226 33.40038402 -6.47263226 33.40038402 -4.11572266 32.97387695 C-1.82131078 32.04103656 -0.60365314 30.99269535 1.11767578 29.21972656 C1.69130859 28.63642578 2.26494141 28.053125 2.85595703 27.45214844 C3.73574219 26.5346582 3.73574219 26.5346582 4.63330078 25.59863281 C5.53628906 24.6753418 5.53628906 24.6753418 6.45751953 23.73339844 C7.93964459 22.21598469 9.41239748 20.68942685 10.88330078 19.16113281 C9.71412109 19.15855469 8.54494141 19.15597656 7.34033203 19.15332031 C5.7921171 19.11578783 4.24394073 19.07664015 2.69580078 19.03613281 C1.926875 19.03871094 1.15794922 19.04128906 0.36572266 19.04394531 C-5.24249759 18.85138839 -5.24249759 18.85138839 -7.74804688 16.87304688 C-9.83901059 14.43973393 -11.10327433 12.20140748 -12.11669922 9.16113281 C-11.09346956 5.75036727 -9.91206072 3.39742201 -7.11669922 1.16113281 C-4.40673548 0.25781157 -2.78800159 0.0262796 0 0 Z " fill="#2A6DC1" transform="translate(157.11669921875,7.8388671875)"/>
<path d="M0 0 C3.5625 0.1875 3.5625 0.1875 6.5625 1.1875 C15.17428105 18.07394612 13.79617385 37.53351022 8.5625 55.1875 C2.57910572 71.74419126 -9.8595117 88.65669688 -25.4375 97.1875 C-26.7575 97.1875 -28.0775 97.1875 -29.4375 97.1875 C-29.4375 95.8675 -29.4375 94.5475 -29.4375 93.1875 C-30.7575 92.8575 -32.0775 92.5275 -33.4375 92.1875 C-34.1875 90.4375 -34.1875 90.4375 -34.4375 88.1875 C-32.37617719 85.5490068 -30.20726991 84.04184423 -27.375 82.25 C-24.20969126 80.02754918 -23.31907165 78.49906611 -21.4375 75.1875 C-20.29198206 73.83595365 -19.12297222 72.50414138 -17.9375 71.1875 C-15.37566315 68.30409367 -13.2356919 65.62041182 -11.4375 62.1875 C-11.04820312 61.46949219 -10.65890625 60.75148437 -10.2578125 60.01171875 C-2.3976831 45.05886904 -0.28758205 30.06608456 -5.10229492 13.84594727 C-6.31223675 9.59658919 -6.6434691 6.46206063 -5.4375 2.1875 C-3.4375 0.1875 -3.4375 0.1875 0 0 Z " fill="#1F83F6" transform="translate(173.4375,80.8125)"/>
<path d="M0 0 C0.96147949 -0.00761353 1.92295898 -0.01522705 2.91357422 -0.02307129 C4.94430954 -0.03386606 6.97510035 -0.03672793 9.00585938 -0.03222656 C12.11422035 -0.03125337 15.22011988 -0.0728999 18.328125 -0.1171875 C20.30207819 -0.12239392 22.27603995 -0.1250827 24.25 -0.125 C25.17925293 -0.14139526 26.10850586 -0.15779053 27.06591797 -0.17468262 C33.50175 -0.10566325 33.50175 -0.10566325 36.7421875 2.88085938 C38.125 5.46875 38.125 5.46875 38.125 7.46875 C38.785 7.79875 39.445 8.12875 40.125 8.46875 C39.795 8.79875 39.465 9.12875 39.125 9.46875 C39.01416193 12.29292694 38.96335491 15.0967635 38.94921875 17.921875 C38.92601288 19.673189 38.90189523 21.42449112 38.87695312 23.17578125 C38.84187508 25.94522963 38.81252188 28.71424355 38.79907227 31.48388672 C38.78357262 34.15125696 38.74334092 36.81734453 38.69921875 39.484375 C38.70112717 40.30850891 38.70303558 41.13264282 38.70500183 41.98175049 C38.62061005 45.95906408 38.39396196 48.02781012 36.27661133 51.49902344 C34.125 53.46875 34.125 53.46875 31.125 53.96875 C27.77098573 53.40974762 26.51628824 52.84962762 24.125 50.46875 C23.57910156 47.74145508 23.57910156 47.74145508 23.515625 44.48828125 C23.46728516 42.74321289 23.46728516 42.74321289 23.41796875 40.96289062 C23.40378906 39.74794922 23.38960937 38.53300781 23.375 37.28125 C23.34535156 36.05470703 23.31570312 34.82816406 23.28515625 33.56445312 C23.21437101 30.53248547 23.16171587 27.50129067 23.125 24.46875 C22.135 24.13875 21.145 23.80875 20.125 23.46875 C20.125 22.80875 20.125 22.14875 20.125 21.46875 C19.135 21.46875 18.145 21.46875 17.125 21.46875 C17.455 22.45875 17.785 23.44875 18.125 24.46875 C17.795 25.45875 17.465 26.44875 17.125 27.46875 C16.135 27.46875 15.145 27.46875 14.125 27.46875 C13.795 28.12875 13.465 28.78875 13.125 29.46875 C12.125 24.46875 11.125 19.46875 10.125 14.46875 C9.24763184 14.49231567 9.24763184 14.49231567 8.35253906 14.51635742 C5.69345836 14.57885267 3.03453236 14.61778569 0.375 14.65625 C-1.00558594 14.69395508 -1.00558594 14.69395508 -2.4140625 14.73242188 C-3.30351562 14.74208984 -4.19296875 14.75175781 -5.109375 14.76171875 C-5.92631836 14.7774292 -6.74326172 14.79313965 -7.58496094 14.80932617 C-10.4248311 14.38697874 -11.78355676 13.40042204 -13.875 11.46875 C-14.40625 9.53125 -14.40625 9.53125 -14.375 7.46875 C-14.3853125 6.788125 -14.395625 6.1075 -14.40625 5.40625 C-13.875 3.46875 -13.875 3.46875 -12.45898438 1.87695312 C-8.44186075 -0.31227298 -4.50596457 0.00097667 0 0 Z " fill="#1C83F8" transform="translate(161.875,9.53125)"/>
<path d="M0 0 C0.4640625 0.36351562 0.928125 0.72703125 1.40625 1.1015625 C1.07625 1.7615625 0.74625 2.4215625 0.40625 3.1015625 C-0.16480469 2.72644531 -0.73585937 2.35132812 -1.32421875 1.96484375 C-20.1255735 -9.90183008 -43.02054884 -13.1330678 -64.8984375 -9.28125 C-68.29910671 -8.39377744 -71.37150679 -7.29975703 -74.59375 -5.8984375 C-75.22249023 -5.62999023 -75.85123047 -5.36154297 -76.49902344 -5.08496094 C-100.76613754 5.48580801 -115.23702651 22.67160858 -124.94873047 47.03442383 C-126.5077026 52.03056958 -126.75454599 57.04817115 -126.91015625 62.25 C-126.93093735 62.90739166 -126.95171844 63.56478333 -126.97312927 64.24209595 C-127.03795753 66.32015612 -127.09719564 68.39833106 -127.15625 70.4765625 C-127.19949888 71.89454261 -127.24311509 73.31251157 -127.28710938 74.73046875 C-127.39356918 78.1873813 -127.49501984 81.64441956 -127.59375 85.1015625 C-126.93375 85.1015625 -126.27375 85.1015625 -125.59375 85.1015625 C-125.26375 88.4015625 -124.93375 91.7015625 -124.59375 95.1015625 C-121.29375 95.4315625 -117.99375 95.7615625 -114.59375 96.1015625 C-112.33058009 92.70680763 -112.42329174 92.03354738 -112.90625 88.1640625 C-113.05513672 86.88208984 -113.05513672 86.88208984 -113.20703125 85.57421875 C-113.53773243 83.17808706 -113.53773243 83.17808706 -114.10302734 81.18457031 C-117.84067625 65.31908748 -112.77659727 47.64417474 -104.59375 34.1015625 C-103.29014993 32.41153812 -101.96420642 30.73784021 -100.59375 29.1015625 C-99.93375 29.4315625 -99.27375 29.7615625 -98.59375 30.1015625 C-98.95726563 30.565625 -99.32078125 31.0296875 -99.6953125 31.5078125 C-103.30768404 36.47250774 -105.75880361 41.51237284 -107.90625 47.2265625 C-108.16035645 47.89494141 -108.41446289 48.56332031 -108.67626953 49.25195312 C-111.1464996 56.0698553 -111.78822038 62.74217987 -111.78125 69.9765625 C-111.78189453 70.67837646 -111.78253906 71.38019043 -111.78320312 72.10327148 C-111.73657399 76.68617387 -111.21087595 80.7991638 -110.05859375 85.21484375 C-109.28835254 88.34111688 -109.16487368 90.91562415 -109.59375 94.1015625 C-111.53125 97.1015625 -111.53125 97.1015625 -114.59375 99.1015625 C-117.81129821 99.47942403 -120.58319827 99.31870864 -123.59375 98.1015625 C-127.55723316 94.31661462 -128.54543376 90.3539531 -129.34375 85.1015625 C-129.46516357 84.35044189 -129.58657715 83.59932129 -129.71166992 82.82543945 C-132.72057529 62.89382351 -128.76067375 42.05406439 -117.59375 25.1015625 C-114.76161619 21.27449692 -111.75544711 17.65982987 -108.59375 14.1015625 C-107.96726562 13.39128906 -107.34078125 12.68101563 -106.6953125 11.94921875 C-79.86647804 -16.63424413 -32.35201723 -23.53971403 0 0 Z " fill="#3366B5" transform="translate(150.59375,40.8984375)"/>
<path d="M0 0 C0.82450653 -0.00960754 1.64901306 -0.01921509 2.49850464 -0.02911377 C3.38603424 -0.03336365 4.27356384 -0.03761353 5.18798828 -0.04199219 C6.10411896 -0.04769226 7.02024963 -0.05339233 7.96414185 -0.05926514 C9.90251512 -0.06871046 11.84090442 -0.07524726 13.77929688 -0.07910156 C16.7400318 -0.0888073 19.70007251 -0.11983505 22.66064453 -0.15136719 C24.544755 -0.15789748 26.42887042 -0.16314785 28.31298828 -0.16699219 C29.19646942 -0.17933899 30.07995056 -0.19168579 30.99020386 -0.20440674 C35.72155867 -0.18731589 39.12678474 -0.06840011 42.88330078 3.16113281 C43.69580078 6.34863281 43.69580078 6.34863281 43.88330078 9.16113281 C43.24392578 8.35675781 42.60455078 7.55238281 41.94580078 6.72363281 C40.47726576 4.88608241 40.47726576 4.88608241 38.88330078 3.16113281 C37.51800564 3.05802085 36.14748685 3.02264365 34.77832031 3.01586914 C33.47158859 3.00629936 33.47158859 3.00629936 32.13845825 2.99653625 C31.19058441 2.99542343 30.24271057 2.99431061 29.26611328 2.99316406 C27.81396927 2.98817146 27.81396927 2.98817146 26.33248901 2.983078 C24.2796069 2.97800403 22.2267165 2.97566982 20.17382812 2.97583008 C17.02867034 2.97364695 13.88386502 2.95550544 10.73876953 2.93652344 C8.74788532 2.93358898 6.75699943 2.93160453 4.76611328 2.93066406 C3.8222879 2.92347855 2.87846252 2.91629303 1.90603638 2.90888977 C0.58984818 2.91350471 0.58984818 2.91350471 -0.75292969 2.91821289 C-1.52490692 2.91678787 -2.29688416 2.91536285 -3.09225464 2.91389465 C-5.43036679 3.04542987 -5.43036679 3.04542987 -8.11669922 5.16113281 C-8.59228128 7.06312681 -8.59228128 7.06312681 -8.49169922 9.16113281 C-8.49943359 9.86238281 -8.50716797 10.56363281 -8.51513672 11.28613281 C-8.25761322 13.57171875 -8.25761322 13.57171875 -5.11669922 15.16113281 C-2.89538499 15.52621192 -2.89538499 15.52621192 -0.44873047 15.57519531 C0.44394531 15.61386719 1.33662109 15.65253906 2.25634766 15.69238281 C3.64950195 15.73878906 3.64950195 15.73878906 5.07080078 15.78613281 C6.01117188 15.82480469 6.95154297 15.86347656 7.92041016 15.90332031 C10.24117788 15.99756469 12.56193826 16.08317306 14.88330078 16.16113281 C16.84750095 20.58979862 18.29034744 24.29891542 18.88330078 29.16113281 C19.87330078 29.16113281 20.86330078 29.16113281 21.88330078 29.16113281 C21.38830078 27.67613281 21.38830078 27.67613281 20.88330078 26.16113281 C21.37830078 24.67613281 21.37830078 24.67613281 21.88330078 23.16113281 C22.87330078 23.16113281 23.86330078 23.16113281 24.88330078 23.16113281 C25.54330078 24.48113281 26.20330078 25.80113281 26.88330078 27.16113281 C20.61330078 33.43113281 14.34330078 39.70113281 7.88330078 46.16113281 C7.22330078 44.84113281 6.56330078 43.52113281 5.88330078 42.16113281 C6.87330078 41.66613281 6.87330078 41.66613281 7.88330078 41.16113281 C7.38830078 40.54238281 6.89330078 39.92363281 6.38330078 39.28613281 C4.88330078 37.16113281 4.88330078 37.16113281 4.88330078 35.16113281 C5.54330078 35.16113281 6.20330078 35.16113281 6.88330078 35.16113281 C7.21330078 34.50113281 7.54330078 33.84113281 7.88330078 33.16113281 C9.20330078 34.48113281 10.52330078 35.80113281 11.88330078 37.16113281 C13.00846163 35.32828838 13.00846163 35.32828838 13.88330078 33.16113281 C13.55330078 32.17113281 13.22330078 31.18113281 12.88330078 30.16113281 C11.56330078 30.49113281 10.24330078 30.82113281 8.88330078 31.16113281 C8.88330078 30.50113281 8.88330078 29.84113281 8.88330078 29.16113281 C8.09955078 29.65613281 7.31580078 30.15113281 6.50830078 30.66113281 C3.88330078 32.16113281 3.88330078 32.16113281 1.88330078 32.16113281 C1.55330078 34.80113281 1.22330078 37.44113281 0.88330078 40.16113281 C-0.76669922 39.83113281 -2.41669922 39.50113281 -4.11669922 39.16113281 C-4.44669922 37.51113281 -4.77669922 35.86113281 -5.11669922 34.16113281 C-4.63201172 33.74863281 -4.14732422 33.33613281 -3.64794922 32.91113281 C1.42580588 28.53989765 6.20482212 23.95159633 10.88330078 19.16113281 C9.71412109 19.15855469 8.54494141 19.15597656 7.34033203 19.15332031 C5.7921171 19.11578783 4.24394073 19.07664015 2.69580078 19.03613281 C1.926875 19.03871094 1.15794922 19.04128906 0.36572266 19.04394531 C-5.24249759 18.85138839 -5.24249759 18.85138839 -7.74804688 16.87304688 C-9.83901059 14.43973393 -11.10327433 12.20140748 -12.11669922 9.16113281 C-11.09346956 5.75036727 -9.91206072 3.39742201 -7.11669922 1.16113281 C-4.40673548 0.25781157 -2.78800159 0.0262796 0 0 Z " fill="#2482F7" transform="translate(157.11669921875,7.8388671875)"/>
<path d="M0 0 C0.66 0 1.32 0 2 0 C2.66 1.32 3.32 2.64 4 4 C4.66 3.34 5.32 2.68 6 2 C6.268125 2.969375 6.53625 3.93875 6.8125 4.9375 C7.204375 5.948125 7.59625 6.95875 8 8 C8.99 8.33 9.98 8.66 11 9 C9.35 9.33 7.7 9.66 6 10 C5.67 10.99 5.34 11.98 5 13 C6.81725675 15.82684384 8.03937946 17.65310925 11.25 18.8125 C12.11625 18.9053125 12.11625 18.9053125 13 19 C13 19.66 13 20.32 13 21 C13.66 21.103125 14.32 21.20625 15 21.3125 C18.83841009 22.19213564 22.33096691 23.56969896 26 25 C24.375 26.1875 24.375 26.1875 22 27 C20 26 18 25 16 24 C12.76797638 25.1372532 10.70286246 27.06088129 8.328125 29.4765625 C7.66425781 30.146875 7.00039062 30.8171875 6.31640625 31.5078125 C5.63449219 32.20648438 4.95257813 32.90515625 4.25 33.625 C3.55261719 34.33140625 2.85523437 35.0378125 2.13671875 35.765625 C0.41987512 37.50598703 -1.29211832 39.25084981 -3 41 C-3.99 40.67 -4.98 40.34 -6 40 C-5.195625 39.236875 -4.39125 38.47375 -3.5625 37.6875 C-0.83200976 35.20569102 -0.83200976 35.20569102 0 32 C-1.32 31.67 -2.64 31.34 -4 31 C-4 27.7 -4 24.4 -4 21 C-2.68 20.34 -1.36 19.68 0 19 C-0.66 18.01 -1.32 17.02 -2 16 C-0.9790625 14.948125 -0.9790625 14.948125 0.0625 13.875 C2.31601537 11.16125241 2.31601537 11.16125241 1.8125 8 C1.544375 7.01 1.27625 6.02 1 5 C0.814375 4.05125 0.62875 3.1025 0.4375 2.125 C0.293125 1.42375 0.14875 0.7225 0 0 Z " fill="#2283F8" transform="translate(70,120)"/>
<path d="M0 0 C0.495 1.485 0.495 1.485 1 3 C0.38511719 3.66386719 -0.22976562 4.32773438 -0.86328125 5.01171875 C-1.67152344 5.89472656 -2.47976562 6.77773437 -3.3125 7.6875 C-4.51326172 8.99267578 -4.51326172 8.99267578 -5.73828125 10.32421875 C-8.03767068 12.8966053 -8.03767068 12.8966053 -9.6015625 15.6875 C-11.49730279 18.82235545 -13.85872092 20.19543542 -17 22 C-17.66 22 -18.32 22 -19 22 C-19 23.98 -19 25.96 -19 28 C-17.02 28.495 -17.02 28.495 -15 29 C-15 30.32 -15 31.64 -15 33 C-14.34 33.33 -13.68 33.66 -13 34 C-15.3125 35.5625 -15.3125 35.5625 -18 37 C-19.485 36.505 -19.485 36.505 -21 36 C-20.34 36 -19.68 36 -19 36 C-19.495 34.02 -19.495 34.02 -20 32 C-20.66 32 -21.32 32 -22 32 C-22.99 30.515 -22.99 30.515 -24 29 C-28.97759034 27.70951362 -32.23712651 27.94712239 -37.125 29.4375 C-54.10479388 34.12530569 -71.93540123 31.39546309 -87.40625 23.59765625 C-90.0201126 21.98761136 -91.93322387 20.25688054 -94 18 C-90.45052761 18.68645457 -87.66863952 20.16291252 -84.5 21.875 C-67.55689772 30.50170775 -50.25507645 30.43539668 -32.33984375 25.2265625 C-19.4946151 20.67329446 -7.9142002 10.93732636 0 0 Z " fill="#2882F8" transform="translate(159,145)"/>
<path d="M0 0 C0.82450653 -0.00960754 1.64901306 -0.01921509 2.49850464 -0.02911377 C3.38603424 -0.03336365 4.27356384 -0.03761353 5.18798828 -0.04199219 C6.10411896 -0.04769226 7.02024963 -0.05339233 7.96414185 -0.05926514 C9.90251512 -0.06871046 11.84090442 -0.07524726 13.77929688 -0.07910156 C16.7400318 -0.0888073 19.70007251 -0.11983505 22.66064453 -0.15136719 C24.544755 -0.15789748 26.42887042 -0.16314785 28.31298828 -0.16699219 C29.19646942 -0.17933899 30.07995056 -0.19168579 30.99020386 -0.20440674 C35.72155867 -0.18731589 39.12678474 -0.06840011 42.88330078 3.16113281 C43.69580078 6.34863281 43.69580078 6.34863281 43.88330078 9.16113281 C43.24392578 8.35675781 42.60455078 7.55238281 41.94580078 6.72363281 C40.47726576 4.88608241 40.47726576 4.88608241 38.88330078 3.16113281 C37.51800564 3.05802085 36.14748685 3.02264365 34.77832031 3.01586914 C33.47158859 3.00629936 33.47158859 3.00629936 32.13845825 2.99653625 C31.19058441 2.99542343 30.24271057 2.99431061 29.26611328 2.99316406 C27.81396927 2.98817146 27.81396927 2.98817146 26.33248901 2.983078 C24.2796069 2.97800403 22.2267165 2.97566982 20.17382812 2.97583008 C17.02867034 2.97364695 13.88386502 2.95550544 10.73876953 2.93652344 C8.74788532 2.93358898 6.75699943 2.93160453 4.76611328 2.93066406 C3.8222879 2.92347855 2.87846252 2.91629303 1.90603638 2.90888977 C0.58984818 2.91350471 0.58984818 2.91350471 -0.75292969 2.91821289 C-1.52490692 2.91678787 -2.29688416 2.91536285 -3.09225464 2.91389465 C-5.43036679 3.04542987 -5.43036679 3.04542987 -8.11669922 5.16113281 C-8.59228128 7.06312681 -8.59228128 7.06312681 -8.49169922 9.16113281 C-8.49943359 9.86238281 -8.50716797 10.56363281 -8.51513672 11.28613281 C-8.25761322 13.57171875 -8.25761322 13.57171875 -5.11669922 15.16113281 C-2.89538499 15.52621192 -2.89538499 15.52621192 -0.44873047 15.57519531 C0.44394531 15.61386719 1.33662109 15.65253906 2.25634766 15.69238281 C3.64950195 15.73878906 3.64950195 15.73878906 5.07080078 15.78613281 C6.01117188 15.82480469 6.95154297 15.86347656 7.92041016 15.90332031 C10.24117788 15.99756469 12.56193826 16.08317306 14.88330078 16.16113281 C12.68907301 21.93989646 12.68907301 21.93989646 9.88330078 24.16113281 C9.22330078 24.16113281 8.56330078 24.16113281 7.88330078 24.16113281 C7.88330078 24.82113281 7.88330078 25.48113281 7.88330078 26.16113281 C6.13330078 27.88769531 6.13330078 27.88769531 3.88330078 29.78613281 C2.76955078 30.73359375 2.76955078 30.73359375 1.63330078 31.70019531 C0.76705078 32.42335938 0.76705078 32.42335938 -0.11669922 33.16113281 C-0.11669922 30.16113281 -0.11669922 30.16113281 2.28955078 27.46191406 C3.31329758 26.45811039 4.34490618 25.46227632 5.38330078 24.47363281 C6.17027344 23.70696289 6.17027344 23.70696289 6.97314453 22.92480469 C8.26990982 21.66340573 9.57576195 20.41136069 10.88330078 19.16113281 C9.71412109 19.15855469 8.54494141 19.15597656 7.34033203 19.15332031 C5.7921171 19.11578783 4.24394073 19.07664015 2.69580078 19.03613281 C1.926875 19.03871094 1.15794922 19.04128906 0.36572266 19.04394531 C-5.24249759 18.85138839 -5.24249759 18.85138839 -7.74804688 16.87304688 C-9.83901059 14.43973393 -11.10327433 12.20140748 -12.11669922 9.16113281 C-11.09346956 5.75036727 -9.91206072 3.39742201 -7.11669922 1.16113281 C-4.40673548 0.25781157 -2.78800159 0.0262796 0 0 Z " fill="#1052AC" transform="translate(157.11669921875,7.8388671875)"/>
<path d="M0 0 C0.86496094 0.34675781 1.72992188 0.69351563 2.62109375 1.05078125 C4.78565595 1.97134219 6.89400868 2.95357188 9 4 C10.010625 4.495 11.02125 4.99 12.0625 5.5 C12.701875 5.995 13.34125 6.49 14 7 C14 8.32 14 9.64 14 11 C13.34 11 12.68 11 12 11 C11.505 9.515 11.505 9.515 11 8 C-3.16281436 -1.73879059 -21.51826041 -1.38132911 -37.91796875 0.43359375 C-52.46416589 3.28613667 -65.00739235 12.34121851 -75 23 C-73.81786817 16.30125298 -67.62064267 12.3034744 -62.4375 8.4375 C-43.91217919 -4.07201102 -20.95537832 -8.44556513 0 0 Z " fill="#2163C0" transform="translate(127,47)"/>
<path d="M0 0 C0.96147949 -0.00761353 1.92295898 -0.01522705 2.91357422 -0.02307129 C4.94430954 -0.03386606 6.97510035 -0.03672793 9.00585938 -0.03222656 C12.11422035 -0.03125337 15.22011988 -0.0728999 18.328125 -0.1171875 C20.30207819 -0.12239392 22.27603995 -0.1250827 24.25 -0.125 C25.17925293 -0.14139526 26.10850586 -0.15779053 27.06591797 -0.17468262 C33.50175 -0.10566325 33.50175 -0.10566325 36.7421875 2.88085938 C38.125 5.46875 38.125 5.46875 38.125 7.46875 C38.785 7.79875 39.445 8.12875 40.125 8.46875 C39.795 8.79875 39.465 9.12875 39.125 9.46875 C38.96476438 12.35127645 38.86545971 15.21253527 38.80859375 18.09765625 C38.78781265 18.96188705 38.76703156 19.82611786 38.74562073 20.71653748 C38.68002886 23.48802445 38.62119582 26.25960921 38.5625 29.03125 C38.51932392 30.90560923 38.47570994 32.77995843 38.43164062 34.65429688 C38.32433773 39.25901336 38.22309785 43.86382858 38.125 48.46875 C37.795 48.46875 37.465 48.46875 37.125 48.46875 C36.0887375 39.08389908 35.8122391 29.71119447 35.5625 20.28125 C35.51919379 18.74152761 35.47557619 17.20181394 35.43164062 15.66210938 C35.32584264 11.93108316 35.22423932 8.19995711 35.125 4.46875 C29.37753972 3.64155079 23.83300583 3.33318514 18.03125 3.37109375 C17.19911987 3.3725087 16.36698975 3.37392365 15.50964355 3.37538147 C12.8813907 3.38092833 10.25322662 3.39347055 7.625 3.40625 C5.83073041 3.41127188 4.03645946 3.41583358 2.2421875 3.41992188 C-2.13024195 3.43088028 -6.50260598 3.44810752 -10.875 3.46875 C-11.72176067 7.20076925 -11.83429637 9.73815301 -10.875 13.46875 C-11.865 12.80875 -12.855 12.14875 -13.875 11.46875 C-14.49150485 5.92020631 -14.49150485 5.92020631 -13.875 3.46875 C-10.16250425 -0.71686298 -5.16946116 0.00112048 0 0 Z " fill="#317FED" transform="translate(161.875,9.53125)"/>
<path d="M0 0 C2 2 2 2 2.22705078 4.06298828 C2.21134033 5.30411377 2.21134033 5.30411377 2.1953125 6.5703125 C2.18564453 7.91416016 2.18564453 7.91416016 2.17578125 9.28515625 C2.15902344 10.22230469 2.14226563 11.15945312 2.125 12.125 C2.11597656 13.06988281 2.10695313 14.01476562 2.09765625 14.98828125 C2.07404522 17.32577292 2.04111516 19.66276123 2 22 C1.67 22 1.34 22 1 22 C0.93941406 20.81921875 0.87882812 19.6384375 0.81640625 18.421875 C0.73197418 16.8645723 0.64732751 15.30728121 0.5625 13.75 C0.52318359 12.97269531 0.48386719 12.19539062 0.44335938 11.39453125 C0.38051758 10.26337891 0.38051758 10.26337891 0.31640625 9.109375 C0.27974854 8.41811523 0.24309082 7.72685547 0.20532227 7.01464844 C-0.00675524 4.93371671 -0.44508677 3.01427578 -1 1 C-4.70740511 1.50100069 -6.65844632 2.03516549 -9 5 C-9.43116962 6.95036468 -9.43116962 6.95036468 -9.34057617 9.10424805 C-9.34034958 9.92487228 -9.34012299 10.74549652 -9.33988953 11.59098816 C-9.32440567 12.47232925 -9.30892181 13.35367035 -9.29296875 14.26171875 C-9.28872391 15.16751175 -9.28447906 16.07330475 -9.28010559 17.00654602 C-9.26330848 19.90049933 -9.2256545 22.79375706 -9.1875 25.6875 C-9.17245449 27.64907849 -9.15876585 29.61066789 -9.14648438 31.57226562 C-9.11340157 36.38177856 -9.06161222 41.19077133 -9 46 C-7.68 46.33 -6.36 46.66 -5 47 C-4.67 46.34 -4.34 45.68 -4 45 C-4 45.99 -4 46.98 -4 48 C8.54 48 21.08 48 34 48 C34 47.34 34 46.68 34 46 C34.99 46 35.98 46 37 46 C37.08226668 42.95613276 36.97608217 40.92824652 36 38 C29.07 37.67 22.14 37.34 15 37 C15 36.67 15 36.34 15 36 C18.4372166 35.88395321 21.87393086 35.81280492 25.3125 35.75 C26.28896484 35.71648437 27.26542969 35.68296875 28.27148438 35.6484375 C29.67817383 35.62910156 29.67817383 35.62910156 31.11328125 35.609375 C31.97735596 35.58842773 32.84143066 35.56748047 33.73168945 35.54589844 C36 36 36 36 37.78198242 37.83300781 C39.423719 40.75384443 39.42114485 42.701032 39 46 C37.45735517 48.02547246 36.5446799 48.88395706 34.03370667 49.41891479 C32.91596107 49.4491423 32.91596107 49.4491423 31.77563477 49.47998047 C30.92787979 49.5094577 30.08012482 49.53893494 29.2066803 49.56930542 C28.29413986 49.58510651 27.38159943 49.60090759 26.44140625 49.6171875 C25.50070786 49.64225372 24.56000946 49.66731995 23.59080505 49.69314575 C21.6013104 49.7421204 19.61162113 49.78366766 17.62182617 49.81835938 C14.57697123 49.87473208 11.53420993 49.96309493 8.49023438 50.0546875 C6.5573343 50.09828728 4.62439094 50.14001628 2.69140625 50.1796875 C1.32563194 50.22160721 1.32563194 50.22160721 -0.06773376 50.26437378 C-3.50241863 50.30701643 -6.31837959 50.23772045 -9.57470703 49.10205078 C-12.03905817 45.46757609 -11.54735925 41.46595201 -11.49609375 37.1875 C-11.49754898 36.22223389 -11.49900421 35.25696777 -11.50050354 34.26245117 C-11.49884343 32.22148623 -11.48726968 30.18050891 -11.46655273 28.13964844 C-11.43760947 25.01183005 -11.44593917 21.88570701 -11.45898438 18.7578125 C-11.45274676 16.77603341 -11.44435564 14.79425968 -11.43359375 12.8125 C-11.43652939 11.87494873 -11.43946503 10.93739746 -11.44248962 9.97143555 C-11.42980545 9.10043213 -11.41712128 8.22942871 -11.40405273 7.33203125 C-11.39864975 6.56608643 -11.39324677 5.8001416 -11.38768005 5.01098633 C-10.18986777 -1.20234373 -5.06615922 -0.40207613 0 0 Z " fill="#2F84F4" transform="translate(20,157)"/>
<path d="M0 0 C-0.33 1.32 -0.66 2.64 -1 4 C-1.33 3.34 -1.66 2.68 -2 2 C-5.43230448 2.26393501 -5.43230448 2.26393501 -9 3 C-11.17257205 6.25885807 -11.12802104 7.05113449 -10.4921875 10.7265625 C-10.1128753 12.47862362 -9.69367356 14.22208125 -9.2578125 15.9609375 C-5.26020459 31.98944161 -6.67223836 48.34974511 -15 63 C-17.16015625 64.83203125 -17.16015625 64.83203125 -19 66 C-17.99311679 63.42219251 -16.94835903 60.88893882 -15.78125 58.37890625 C-9.17773622 43.86325553 -7.82877267 27.28516545 -13.37890625 12.1484375 C-14.1073808 9.628557 -14.22929821 7.61145187 -14 5 C-10.09631605 -0.666638 -6.32997664 -0.62058594 0 0 Z " fill="#2763C2" transform="translate(179,79)"/>
<path d="M0 0 C3.54947239 0.68645457 6.33136048 2.16291252 9.5 3.875 C25.38532193 11.96313094 42.03002714 12.61583262 59 8 C62.40472829 6.8076827 65.69533398 5.44132781 69 4 C69.99 3.67 70.98 3.34 72 3 C72 3.66 72 4.32 72 5 C59.81399502 14.43672337 42.67066155 14.09363113 28 13 C17.85954823 11.68630122 7.01006698 7.65486088 0 0 Z " fill="#215FBB" transform="translate(65,163)"/>
<path d="M0 0 C0.53496094 0.46019531 1.06992188 0.92039062 1.62109375 1.39453125 C-0.68890625 2.05453125 -2.99890625 2.71453125 -5.37890625 3.39453125 C-5.87390625 2.89953125 -5.87390625 2.89953125 -6.37890625 2.39453125 C-7.72637709 2.16378043 -9.0826819 1.98300062 -10.44140625 1.83203125 C-11.74078125 1.68765625 -13.04015625 1.54328125 -14.37890625 1.39453125 C-14.37890625 0.40453125 -14.37890625 -0.58546875 -14.37890625 -1.60546875 C-17.54982951 -2.54063341 -20.4028057 -2.73426661 -23.703125 -2.73828125 C-25.24709961 -2.74021484 -25.24709961 -2.74021484 -26.82226562 -2.7421875 C-27.89283203 -2.73832031 -28.96339844 -2.73445313 -30.06640625 -2.73046875 C-31.64325195 -2.73626953 -31.64325195 -2.73626953 -33.25195312 -2.7421875 C-39.3775559 -2.73456385 -45.30548777 -2.40677841 -51.37890625 -1.60546875 C-51.37890625 -0.94546875 -51.37890625 -0.28546875 -51.37890625 0.39453125 C-52.37890625 2.08203125 -52.37890625 2.08203125 -54.37890625 3.39453125 C-57.14412405 3.35089862 -59.63982964 2.8884631 -62.37890625 2.39453125 C-49.28270353 -8.41061001 -14.25066705 -9.61744525 0 0 Z " fill="#2A83F3" transform="translate(134.37890625,34.60546875)"/>
<path d="M0 0 C19.64297205 -0.69692542 40.11125716 2.55381811 56 15 C55.67 15.66 55.34 16.32 55 17 C54.42894531 16.62488281 53.85789063 16.24976562 53.26953125 15.86328125 C35.90569449 4.9039121 18.96337609 3.6498598 -1 3 C-0.67 2.01 -0.34 1.02 0 0 Z " fill="#2E66BA" transform="translate(96,27)"/>
<path d="M0 0 C0.66 0.33 1.32 0.66 2 1 C1.63648438 1.4640625 1.27296875 1.928125 0.8984375 2.40625 C-2.71393404 7.37094524 -5.16505361 12.41081034 -7.3125 18.125 C-7.56660645 18.79337891 -7.82071289 19.46175781 -8.08251953 20.15039062 C-10.58258916 27.05065078 -11.16678089 33.74388087 -11.125 41.0625 C-11.12886719 41.74376953 -11.13273437 42.42503906 -11.13671875 43.12695312 C-11.13064754 46.28701743 -10.96176828 49.19989055 -10.3671875 52.30859375 C-10 55 -10 55 -12 58 C-16.93106306 40.50458825 -13.82183965 23.61085192 -5.5625 7.5859375 C-3.91092666 4.85258362 -2.04872361 2.44610534 0 0 Z " fill="#225BB9" transform="translate(50,70)"/>
<path d="M0 0 C0.33 0 0.66 0 1 0 C1.07437576 5.44430582 1.12870866 10.88831329 1.16479492 16.33300781 C1.17984471 18.18364619 1.20028933 20.03424911 1.22631836 21.88476562 C1.2628698 24.55087045 1.27976454 27.21650208 1.29296875 29.8828125 C1.30845261 30.70492218 1.32393646 31.52703186 1.33988953 32.37405396 C1.3413262 37.32177697 0.78698547 40.73371509 -2 45 C-5.7205836 47.48038907 -7.59796571 47.46337203 -12 47 C-14.90717073 44.78136971 -15.83981643 43.48055071 -17 40 C-16.34 40 -15.68 40 -15 40 C-14.4225 40.66 -13.845 41.32 -13.25 42 C-11.10863575 44.26274693 -11.10863575 44.26274693 -7.9375 44.5 C-5.00634921 44.26867249 -5.00634921 44.26867249 -3.34619141 42.52416992 C-1.34798195 38.77743659 -1.53986049 35.30020198 -1.5234375 31.11328125 C-1.50785797 30.25566696 -1.49227844 29.39805267 -1.47622681 28.51445007 C-1.42875846 25.78047556 -1.40095129 23.04675627 -1.375 20.3125 C-1.3385467 17.56771049 -1.29799264 14.82306691 -1.25234985 12.07841492 C-1.22505593 10.37131789 -1.20373406 8.6641134 -1.18881226 6.9568634 C-1.11067651 1.11067651 -1.11067651 1.11067651 0 0 Z " fill="#0E53B7" transform="translate(201,18)"/>
<path d="M0 0 C1.33365476 0.2901934 2.66690215 0.58225892 4 0.875 C5.11375 1.11863281 5.11375 1.11863281 6.25 1.3671875 C8.39924017 1.86175697 10.52917231 2.44041472 12.6484375 3.05078125 C17.63036752 4.29684712 22.51129632 4.34096382 27.625 4.3125 C28.58615723 4.31121094 29.54731445 4.30992187 30.53759766 4.30859375 C38.3412057 4.2040403 45.47634255 3.15695299 53 1 C53 1.99 53 2.98 53 4 C44.44518746 6.55046703 36.59571522 7.46827974 27.6875 7.375 C25.99657227 7.39240234 25.99657227 7.39240234 24.27148438 7.41015625 C18.00926233 7.38806728 13.55723937 6.89006165 8 4 C6.01178687 3.60235737 4.01267638 3.24544834 2 3 C2 2.34 2 1.68 2 1 C1.34 0.67 0.68 0.34 0 0 Z " fill="#2C82EF" transform="translate(76,171)"/>
<path d="M0 0 C0.66 0.66 1.32 1.32 2 2 C1.04480469 2.09796875 0.08960938 2.1959375 -0.89453125 2.296875 C-19.9496029 4.50065198 -34.64750101 12.24287983 -48 26 C-46.81786817 19.30125298 -40.62064267 15.3034744 -35.4375 11.4375 C-25.23892405 4.5348053 -12.5450664 -1.02408705 0 0 Z " fill="#2665B6" transform="translate(100,44)"/>
<path d="M0 0 C0 4.57783351 -1.56148721 8.68446164 -3 13 C-3 13.99 -3 14.98 -3 16 C-2.34 16 -1.68 16 -1 16 C-1 18.97 -1 21.94 -1 25 C-1.99 25 -2.98 25 -4 25 C-4 22.69 -4 20.38 -4 18 C-7.08759559 18.64067976 -7.08759559 18.64067976 -7.94921875 20.84765625 C-8.19285156 21.57855469 -8.43648437 22.30945313 -8.6875 23.0625 C-8.93886719 23.79597656 -9.19023437 24.52945313 -9.44921875 25.28515625 C-9.63097656 25.85105469 -9.81273438 26.41695312 -10 27 C-11.04781434 23.83145171 -10.98927581 22.16850685 -9.70703125 19.1015625 C-9.40603516 18.37453125 -9.10503906 17.6475 -8.79492188 16.8984375 C-8.47072266 16.14820312 -8.14652344 15.39796875 -7.8125 14.625 C-7.50763672 13.8825 -7.20277344 13.14 -6.88867188 12.375 C-4.99533507 7.88179819 -2.83808804 3.96451323 0 0 Z " fill="#2982F3" transform="translate(35,67)"/>
<path d="M0 0 C0.66 0.66 1.32 1.32 2 2 C-5.10651399 11.72015592 -12.62180326 19.77323445 -25 22 C-27.59373914 22.06898242 -30.15810197 22.09434752 -32.75 22.0625 C-33.44738281 22.05798828 -34.14476563 22.05347656 -34.86328125 22.04882812 C-36.57555803 22.0371002 -38.28779033 22.01916653 -40 22 C-40 21.34 -40 20.68 -40 20 C-38.94941406 19.97421875 -37.89882812 19.9484375 -36.81640625 19.921875 C-28.76376812 19.63400662 -22.08343539 19.18178716 -15 15 C-14.31679687 14.66226563 -13.63359375 14.32453125 -12.9296875 13.9765625 C-6.82743544 10.70501292 -3.59883093 5.79186852 0 0 Z " fill="#2164C0" transform="translate(137,126)"/>
<path d="M0 0 C3.94264109 3.94264109 3.94768586 5.37826166 4.125 10.875 C4.0861856 14.32948146 3.67867307 17.60663466 3 21 C3.721875 20.278125 4.44375 19.55625 5.1875 18.8125 C7.79166667 16.20833333 10.39583333 13.60416667 13 11 C13.99 11.33 14.98 11.66 16 12 C13.31011108 15.58651856 10.5185635 18.24220698 7 21 C6.67 21.66 6.34 22.32 6 23 C4.35 22.67 2.7 22.34 1 22 C0.67 14.74 0.34 7.48 0 0 Z " fill="#376BCF" transform="translate(21,156)"/>
<path d="M0 0 C0.80695313 0.29390625 1.61390625 0.5878125 2.4453125 0.890625 C3.18394531 1.13941406 3.92257813 1.38820312 4.68359375 1.64453125 C5.36808594 1.91136719 6.05257812 2.17820313 6.7578125 2.453125 C7.9746875 2.9275 9.1915625 3.401875 10.4453125 3.890625 C8.8203125 5.078125 8.8203125 5.078125 6.4453125 5.890625 C4.4453125 4.890625 2.4453125 3.890625 0.4453125 2.890625 C-2.78671112 4.0278782 -4.85182504 5.95150629 -7.2265625 8.3671875 C-7.89042969 9.0375 -8.55429688 9.7078125 -9.23828125 10.3984375 C-9.92019531 11.09710938 -10.60210937 11.79578125 -11.3046875 12.515625 C-12.35076172 13.57523438 -12.35076172 13.57523438 -13.41796875 14.65625 C-15.13481238 16.39661203 -16.84680582 18.14147481 -18.5546875 19.890625 C-19.5446875 19.560625 -20.5346875 19.230625 -21.5546875 18.890625 C-19.93128945 17.18178495 -18.26149697 15.51615783 -16.5546875 13.890625 C-15.8946875 13.890625 -15.2346875 13.890625 -14.5546875 13.890625 C-14.32394531 13.34019531 -14.09320313 12.78976563 -13.85546875 12.22265625 C-12.18821097 9.23360851 -10.1178921 7.03931222 -7.7421875 4.578125 C-6.89011719 3.67449219 -6.03804687 2.77085937 -5.16015625 1.83984375 C-2.5546875 -0.109375 -2.5546875 -0.109375 0 0 Z " fill="#2D6EC3" transform="translate(85.5546875,141.109375)"/>
<path d="M0 0 C2.9795099 -0.26653946 5.7488582 -0.34767784 8.7265625 -0.29296875 C9.58937836 -0.28872391 10.45219421 -0.28447906 11.34115601 -0.28010559 C14.10275197 -0.26328392 16.86362383 -0.22562598 19.625 -0.1875 C21.49478114 -0.17245764 23.3645737 -0.15876846 25.234375 -0.14648438 C29.82319658 -0.11336906 34.41147544 -0.06156339 39 0 C39 0.33 39 0.66 39 1 C31.41 1 23.82 1 16 1 C16 1.66 16 2.32 16 3 C10.06 3 4.12 3 -2 3 C-1.34 2.01 -0.68 1.02 0 0 Z " fill="#1E59E4" transform="translate(16,206)"/>
<path d="M0 0 C2.4375 0.8125 2.4375 0.8125 5 2 C5.33 2.99 5.66 3.98 6 5 C6.99 4.67 7.98 4.34 9 4 C9.22732116 6.80362763 9.34081872 8.46186517 7.8125 10.875 C6 12 6 12 3.38671875 11.5703125 C2.59910156 11.38210937 1.81148437 11.19390625 1 11 C0.63890458 9.35567294 0.28629924 7.7094792 -0.0625 6.0625 C-0.25972656 5.14597656 -0.45695313 4.22945312 -0.66015625 3.28515625 C-0.77230469 2.53105469 -0.88445312 1.77695313 -1 1 C-0.67 0.67 -0.34 0.34 0 0 Z " fill="#1883F7" transform="translate(131,172)"/>
<path d="M0 0 C0.66 0 1.32 0 2 0 C1.67 10.23 1.34 20.46 1 31 C0.67 31 0.34 31 0 31 C0 29.02 0 27.04 0 25 C-0.66 25 -1.32 25 -2 25 C-2.24911914 16.41922945 -1.69882188 8.41826913 0 0 Z " fill="#2964C2" transform="translate(22,92)"/>
<path d="M0 0 C0 0.66 0 1.32 0 2 C-0.6290625 2.27972656 -1.258125 2.55945313 -1.90625 2.84765625 C-11.69481694 7.43236155 -18.72334077 12.85375584 -23 23 C-23.84695451 25.66945872 -24.44941511 28.24707554 -25 31 C-25.33 31 -25.66 31 -26 31 C-26.72920477 24.29131612 -24.65684519 19.59634018 -21 14 C-16.14626075 7.97104436 -8.37020815 0 0 0 Z " fill="#2B62B5" transform="translate(94,74)"/>
<path d="M0 0 C3.5625 0.1875 3.5625 0.1875 6.5625 1.1875 C7.75 4.25 7.75 4.25 8.5625 7.1875 C7.510625 6.713125 6.45875 6.23875 5.375 5.75 C2.46074149 4.49426259 -0.28496914 3.66515619 -3.4375 3.1875 C-3.54412326 8.30541642 -3.14917986 13.11678099 -2.4375 18.1875 C-5.37622851 12.72986134 -7.11945603 8.35467212 -5.4375 2.1875 C-3.4375 0.1875 -3.4375 0.1875 0 0 Z " fill="#2B84EF" transform="translate(173.4375,80.8125)"/>
<path d="M0 0 C0.33 0 0.66 0 1 0 C1.33 6.6 1.66 13.2 2 20 C4.475 20.99 4.475 20.99 7 22 C7.66 22.33 8.32 22.66 9 23 C11.11683841 22.10836423 11.11683841 22.10836423 13 21 C11.125 24.875 11.125 24.875 10 26 C6.79491214 26.2848967 4.68458111 26.37233896 1.82519531 24.81713867 C0 23 0 23 -0.45410156 20.5480957 C-0.4331543 19.60023193 -0.41220703 18.65236816 -0.390625 17.67578125 C-0.37773437 16.64775391 -0.36484375 15.61972656 -0.3515625 14.56054688 C-0.31804687 13.48869141 -0.28453125 12.41683594 -0.25 11.3125 C-0.23195312 10.22904297 -0.21390625 9.14558594 -0.1953125 8.02929688 C-0.14813508 5.35197854 -0.08232249 2.67643091 0 0 Z " fill="#2F84F3" transform="translate(186,37)"/>
<path d="M0 0 C1.485 0.99 1.485 0.99 3 2 C3.34057617 4.43017578 3.34057617 4.43017578 3.29296875 7.4453125 C3.28330078 8.52167969 3.27363281 9.59804688 3.26367188 10.70703125 C3.23853516 11.83496094 3.21339844 12.96289062 3.1875 14.125 C3.17396484 15.26066406 3.16042969 16.39632812 3.14648438 17.56640625 C3.11104319 20.37807387 3.06163517 23.18880417 3 26 C2.01 26 1.02 26 0 26 C0 17.42 0 8.84 0 0 Z " fill="#2369DC" transform="translate(183,32)"/>
<path d="M0 0 C4.81012658 4.08860759 4.81012658 4.08860759 5.625 8 C4.78357127 12.03885789 3.22563142 13.49117556 0 16 C-4.82842881 17.55460776 -9.82908823 16.88580859 -14.8125 16.5625 C-15.69615234 16.51029297 -16.57980469 16.45808594 -17.49023438 16.40429688 C-19.66050408 16.27525381 -21.83030693 16.13840044 -24 16 C-24 15.67 -24 15.34 -24 15 C-23.31897217 14.98541748 -22.63794434 14.97083496 -21.9362793 14.95581055 C-18.85277785 14.88137304 -15.77036433 14.78469917 -12.6875 14.6875 C-11.61564453 14.66494141 -10.54378906 14.64238281 -9.43945312 14.61914062 C-8.41142578 14.58369141 -7.38339844 14.54824219 -6.32421875 14.51171875 C-5.37635498 14.48553467 -4.42849121 14.45935059 -3.4519043 14.43237305 C-0.60695843 13.93069037 0.32604548 13.32411418 2 11 C2.45791808 6.78715363 1.79392044 3.81208094 0 0 Z " fill="#2E60B4" transform="translate(56,192)"/>
<path d="M0 0 C0.33 0.99 0.66 1.98 1 3 C-5.40633755 10.41722351 -11.57058324 16.80704043 -20 22 C-20 21.01 -20 20.02 -20 19 C-18.05859375 17.203125 -18.05859375 17.203125 -15.4375 15.25 C-9.63971182 10.78258248 -4.14623805 6.0974089 0 0 Z " fill="#2758C0" transform="translate(159,145)"/>
<path d="M0 0 C0.66 0.33 1.32 0.66 2 1 C2.125 8.75 2.125 8.75 1 11 C-1.25 11.3125 -1.25 11.3125 -4 11 C-6.375 8.6875 -6.375 8.6875 -8 6 C-7.67 5.01 -7.34 4.02 -7 3 C-6.67 3.99 -6.34 4.98 -6 6 C-4.35 6 -2.7 6 -1 6 C-0.67 4.02 -0.34 2.04 0 0 Z " fill="#1583F8" transform="translate(35,125)"/>
<path d="M0 0 C3.32828994 4.43771991 3.65864881 6.74814242 3 12 C2.22201805 15.74029782 1.36827917 19.42866584 0 23 C-0.66 23.33 -1.32 23.66 -2 24 C-1.34 16.08 -0.68 8.16 0 0 Z " fill="#366ACA" transform="translate(140,103)"/>
<path d="M0 0 C5.94 0 11.88 0 18 0 C17.67 1.65 17.34 3.3 17 5 C14.9375 6.3125 14.9375 6.3125 13 7 C13 7.66 13 8.32 13 9 C11.25 10.7265625 11.25 10.7265625 9 12.625 C8.2575 13.25664063 7.515 13.88828125 6.75 14.5390625 C6.1725 15.02117188 5.595 15.50328125 5 16 C5 13 5 13 7.40625 10.30078125 C8.42861302 9.29556825 9.46178825 8.30133552 10.5 7.3125 C12.315 5.559375 14.13 3.80625 16 2 C10.72 1.67 5.44 1.34 0 1 C0 0.67 0 0.34 0 0 Z " fill="#3564B4" transform="translate(152,25)"/>
<path d="M0 0 C5.28 0 10.56 0 16 0 C16 0.66 16 1.32 16 2 C16.66 2.33 17.32 2.66 18 3 C11.73 3 5.46 3 -1 3 C-0.67 2.01 -0.34 1.02 0 0 Z " fill="#306CCC" transform="translate(96,27)"/>
<path d="M0 0 C-0.33 1.32 -0.66 2.64 -1 4 C-1.33 3.34 -1.66 2.68 -2 2 C-5.43230448 2.26393501 -5.43230448 2.26393501 -9 3 C-11.20914 6.31371 -11.22481553 7.3446021 -11.125 11.1875 C-11.10695312 12.08855469 -11.08890625 12.98960938 -11.0703125 13.91796875 C-11.04710937 14.60503906 -11.02390625 15.29210937 -11 16 C-13.37767799 12.43348301 -14.30619198 9.25358584 -14 5 C-10.37467298 -0.80052324 -6.22158794 -0.6099596 0 0 Z " fill="#3365B4" transform="translate(179,79)"/>
<path d="M0 0 C1.59906837 2.47181997 2.03273759 3.69415016 1.71484375 6.6640625 C-2.80170576 23.86780384 -2.80170576 23.86780384 -9 28 C-7.97807626 25.39787935 -6.92222373 22.82600051 -5.78125 20.2734375 C-2.81710466 13.56796238 -0.95862498 7.26838044 0 0 Z " fill="#2E63B6" transform="translate(169,117)"/>
<path d="M0 0 C0.33 0.99 0.66 1.98 1 3 C0.01 3.33 -0.98 3.66 -2 4 C-2.33 6.64 -2.66 9.28 -3 12 C-4.65 11.67 -6.3 11.34 -8 11 C-8.33 9.35 -8.66 7.7 -9 6 C-8.071875 5.566875 -7.14375 5.13375 -6.1875 4.6875 C-3.52815927 3.27961373 -1.91894095 2.23876444 0 0 Z " fill="#277DEB" transform="translate(161,36)"/>
<path d="M0 0 C0.66 0.33 1.32 0.66 2 1 C1.62488281 1.49886719 1.24976563 1.99773437 0.86328125 2.51171875 C-3.70315268 8.91852907 -6.41417319 15.59721262 -9 23 C-9.33 23 -9.66 23 -10 23 C-10.31690039 18.16726909 -9.47952098 15.21442762 -7.25 10.9375 C-6.48429687 9.43509766 -6.48429687 9.43509766 -5.703125 7.90234375 C-4.01718211 5.02928053 -2.14592757 2.54245767 0 0 Z " fill="#285EB7" transform="translate(50,70)"/>
<path d="M0 0 C0 4.19889937 -2.20985265 6.12307773 -5 9 C-7.00911936 10.84104128 -9.05275158 12.62635591 -11.1328125 14.38671875 C-13.01227265 15.94562867 -13.01227265 15.94562867 -14.54296875 17.6953125 C-16 19 -16 19 -19.1875 19.1875 C-20.5796875 19.0946875 -20.5796875 19.0946875 -22 19 C-22 18.67 -22 18.34 -22 18 C-21.18273437 17.83757812 -20.36546875 17.67515625 -19.5234375 17.5078125 C-14.47880565 15.34902326 -11.37569342 11.80203705 -7.625 7.875 C-6.88894531 7.12089844 -6.15289062 6.36679687 -5.39453125 5.58984375 C-3.58694417 3.73530635 -1.7893841 1.87207871 0 0 Z " fill="#3668B8" transform="translate(138,57)"/>
<path d="M0 0 C-0.33 0.66 -0.66 1.32 -1 2 C-3.77414788 2.7812425 -6.50022467 3.45475274 -9.3125 4.0625 C-10.85027109 4.40750452 -12.38803184 4.75255513 -13.92578125 5.09765625 C-14.61067627 5.24726807 -15.29557129 5.39687988 -16.0012207 5.55102539 C-18.00965856 6.00216955 -20.00501529 6.49295185 -22 7 C-18.96430182 3.48498105 -16.63038154 2.28176676 -12.125 1.25 C-11.11695312 1.00765625 -10.10890625 0.7653125 -9.0703125 0.515625 C-5.98519418 -0.00248647 -3.12188326 -0.09319054 0 0 Z " fill="#2565B8" transform="translate(96,28)"/>
<path d="M0 0 C0.66 0.66 1.32 1.32 2 2 C-2.08381732 7.58576837 -6.19224211 13.09240564 -12 17 C-12.66 17 -13.32 17 -14 17 C-13 14 -13 14 -10.375 12.4375 C-5.62057753 9.51791533 -2.96383627 4.59482309 0 0 Z " fill="#2C64B3" transform="translate(137,126)"/>
<path d="M0 0 C0.66 0.33 1.32 0.66 2 1 C2 4.50935186 1.62457273 7.56484998 1 11 C0.34 11 -0.32 11 -1 11 C-1 11.99 -1 12.98 -1 14 C-1.66 14 -2.32 14 -3 14 C-3.625 11.625 -3.625 11.625 -4 9 C-3.34 8.34 -2.68 7.68 -2 7 C-1.28072705 4.68234271 -0.6090107 2.34904126 0 0 Z " fill="#1284F4" transform="translate(35,69)"/>
<path d="M0 0 C1.45947705 0.06006078 2.91779272 0.1488689 4.375 0.25 C5.59316406 0.31960937 5.59316406 0.31960937 6.8359375 0.390625 C9 1 9 1 10.2890625 3.046875 C10.64097656 4.01367188 10.64097656 4.01367188 11 5 C10.05125 4.835 9.1025 4.67 8.125 4.5 C5.19831099 3.9473365 5.19831099 3.9473365 3 4 C2.67 4.66 2.34 5.32 2 6 C1.01 6 0.02 6 -1 6 C-0.67 4.02 -0.34 2.04 0 0 Z " fill="#1282F9" transform="translate(170,84)"/>
<path d="M0 0 C2.50031654 3.75047482 2.53603554 5.55856266 2 10 C-0.125 12.9375 -0.125 12.9375 -3 15 C-6.3125 15.3125 -6.3125 15.3125 -9 15 C-9 14.34 -9 13.68 -9 13 C-7.865625 12.71125 -6.73125 12.4225 -5.5625 12.125 C-4.386875 11.75375 -3.21125 11.3825 -2 11 C-0.85185003 8.70370006 -0.69230191 6.92301914 -0.4375 4.375 C-0.35371094 3.55773437 -0.26992188 2.74046875 -0.18359375 1.8984375 C-0.12300781 1.27195312 -0.06242187 0.64546875 0 0 Z " fill="#315FB0" transform="translate(39,125)"/>
<path d="M0 0 C0.33 0 0.66 0 1 0 C1.55353075 19.00455581 1.55353075 19.00455581 -2 27 C-2.99 27 -3.98 27 -5 27 C-3.828125 24.4609375 -3.828125 24.4609375 -2.65625 21.921875 C-1.78457076 19.70757164 -1.78457076 19.70757164 -2 16 C-1.34 16 -0.68 16 0 16 C0 10.72 0 5.44 0 0 Z " fill="#2C84F1" transform="translate(139,101)"/>
<path d="M0 0 C0.66 0 1.32 0 2 0 C2.5775 0.66 3.155 1.32 3.75 2 C5.89136425 4.26274693 5.89136425 4.26274693 9.0625 4.5 C12.10961284 4.29942617 12.10961284 4.29942617 13.75 2 C14.1625 1.34 14.575 0.68 15 0 C15.66 0 16.32 0 17 0 C15.75023244 3.65316671 15.32901247 4.78065836 12 7 C5.87547998 7.66812946 5.87547998 7.66812946 2.625 5.1875 C1 3 1 3 0 0 Z " fill="#2C5EB5" transform="translate(184,58)"/>
<path d="M0 0 C3.22899426 -0.0875127 6.45768116 -0.14056146 9.6875 -0.1875 C11.05551758 -0.22520508 11.05551758 -0.22520508 12.45117188 -0.26367188 C21.20537942 -0.35917232 21.20537942 -0.35917232 25 3 C25.8125 6.1875 25.8125 6.1875 26 9 C25.443125 8.21625 24.88625 7.4325 24.3125 6.625 C20.92812449 2.78327645 17.77809488 1.95936756 12.79296875 1.5859375 C11.2582372 1.50689553 9.72302324 1.43678132 8.1875 1.375 C7.00510742 1.31699219 7.00510742 1.31699219 5.79882812 1.2578125 C3.8662462 1.16411156 1.93315624 1.08099221 0 1 C0 0.67 0 0.34 0 0 Z " fill="#2E5FA5" transform="translate(175,8)"/>
<path d="M0 0 C2.375 -0.1875 2.375 -0.1875 5 0 C7.20914 3.31371 7.22481553 4.3446021 7.125 8.1875 C7.10695313 9.08855469 7.08890625 9.98960937 7.0703125 10.91796875 C7.03550781 11.94857422 7.03550781 11.94857422 7 13 C6.67 13 6.34 13 6 13 C5.67 10.36 5.34 7.72 5 5 C4.01 5.33 3.02 5.66 2 6 C0 3 0 3 0 0 Z " fill="#1B83F3" transform="translate(14,158)"/>
<path d="M0 0 C-0.54261811 3.79832675 -1.95110073 5.69272487 -5 8 C-8.25 8.25 -8.25 8.25 -11 8 C-4.94594595 0 -4.94594595 0 0 0 Z " fill="#2F83F1" transform="translate(88,79)"/>
<path d="M0 0 C4.62 0 9.24 0 14 0 C14.33 0.66 14.66 1.32 15 2 C13.43784452 2.16986545 11.8752548 2.33573964 10.3125 2.5 C9.00732422 2.63921875 9.00732422 2.63921875 7.67578125 2.78125 C5.10276661 2.99159864 2.58015636 3.03719144 0 3 C0 2.01 0 1.02 0 0 Z " fill="#1185F5" transform="translate(97,38)"/>
<path d="M0 0 C0 0.99 0 1.98 0 3 C-1.2375 2.9175 -2.475 2.835 -3.75 2.75 C-7.10506698 2.7262052 -7.75447904 2.80358323 -10.5 5 C-10.995 5.66 -11.49 6.32 -12 7 C-11.72776186 3.64239623 -11.41629629 2.35682539 -8.8125 0.125 C-5.41866747 -1.23253301 -3.49402134 -0.89381941 0 0 Z " fill="#3463B7" transform="translate(20,155)"/>
<path d="M0 0 C-0.75925781 0.38671875 -1.51851562 0.7734375 -2.30078125 1.171875 C-3.29464844 1.69265625 -4.28851563 2.2134375 -5.3125 2.75 C-6.29863281 3.26046875 -7.28476563 3.7709375 -8.30078125 4.296875 C-10.95450276 5.97129263 -12.33102197 7.37976145 -14 10 C-14.99 9.34 -15.98 8.68 -17 8 C-4.77138531 -1.59046177 -4.77138531 -1.59046177 0 0 Z " fill="#2E83EF" transform="translate(72,38)"/>
<path d="M0 0 C1.65 0 3.3 0 5 0 C3.79216249 3.62351253 2.70346858 4.15215236 -0.4375 6.1875 C-1.24058594 6.71730469 -2.04367188 7.24710938 -2.87109375 7.79296875 C-5 9 -5 9 -7 9 C-6.875 7.125 -6.875 7.125 -6 5 C-2.9375 3.75 -2.9375 3.75 0 3 C0 2.01 0 1.02 0 0 Z " fill="#2585F1" transform="translate(126,134)"/>
<path d="M0 0 C5.05458895 6.10036597 7.33390015 10.14002176 8 18 C6.04779153 15.0716873 4.4664935 12.13685675 2.875 9 C2.33617187 7.948125 1.79734375 6.89625 1.2421875 5.8125 C0 3 0 3 0 0 Z " fill="#2163B5" transform="translate(134,88)"/>
<path d="M0 0 C6.1419274 0.32903183 11.47312381 1.53332164 16 6 C16 7.32 16 8.64 16 10 C15.34 10 14.68 10 14 10 C13.67 9.01 13.34 8.02 13 7 C10.78189281 5.60583444 10.78189281 5.60583444 8.125 4.4375 C5.22475592 3.0803887 2.67400254 1.78266836 0 0 Z " fill="#2160C0" transform="translate(125,48)"/>
<path d="M0 0 C0 0.99 0 1.98 0 3 C-1.79296875 4.53515625 -1.79296875 4.53515625 -4.1875 6.0625 C-4.96480469 6.56910156 -5.74210938 7.07570312 -6.54296875 7.59765625 C-8.9716187 8.98380145 -11.38147492 10.02793652 -14 11 C-14 10.34 -14 9.68 -14 9 C-13.34 9 -12.68 9 -12 9 C-11.67 8.01 -11.34 7.02 -11 6 C-10.01 6 -9.02 6 -8 6 C-5.89243176 4.69193639 -5.89243176 4.69193639 -3.8125 3 C-2.73935547 2.1646875 -2.73935547 2.1646875 -1.64453125 1.3125 C-1.10183594 0.879375 -0.55914062 0.44625 0 0 Z " fill="#2C7AED" transform="translate(149,159)"/>
<path d="M0 0 C5.94 0 11.88 0 18 0 C18 0.33 18 0.66 18 1 C12.85462167 2.78513126 9.45025248 3.23401943 4 2 C2.68 1.34 1.36 0.68 0 0 Z " fill="#2162E8" transform="translate(96,43)"/>
<path d="M0 0 C3.85025879 0.60355408 6.86101159 1.76772603 10.3125 3.5625 C11.19550781 4.01753906 12.07851562 4.47257813 12.98828125 4.94140625 C13.65214844 5.29074219 14.31601563 5.64007813 15 6 C15 6.66 15 7.32 15 8 C9.3723345 6.34921812 4.67132966 4.59333051 0 1 C0 0.67 0 0.34 0 0 Z " fill="#3469B5" transform="translate(59,178)"/>
<path d="M0 0 C0.99 0.33 1.98 0.66 3 1 C0.31011108 4.58651856 -2.4814365 7.24220698 -6 10 C-6.33 10.66 -6.66 11.32 -7 12 C-7.66 11.67 -8.32 11.34 -9 11 C-7.87672229 9.54033966 -6.75131706 8.08231636 -5.625 6.625 C-4.99851562 5.81289062 -4.37203125 5.00078125 -3.7265625 4.1640625 C-2 2 -2 2 0 0 Z " fill="#184EC9" transform="translate(34,167)"/>
<path d="M0 0 C2.64 1.98 5.28 3.96 8 6 C7.01 6.33 6.02 6.66 5 7 C2.8125 5.5625 2.8125 5.5625 1 4 C0.01 4.99 -0.98 5.98 -2 7 C-2.99 6.67 -3.98 6.34 -5 6 C-3.35 4.02 -1.7 2.04 0 0 Z " fill="#2464C5" transform="translate(52,171)"/>
<path d="M0 0 C7.50769231 -0.36923077 7.50769231 -0.36923077 10 1.5 C10.495 2.2425 10.495 2.2425 11 3 C7.58810914 3.85297271 5.3577347 4.0420556 2 3 C1.34 3 0.68 3 0 3 C0 2.01 0 1.02 0 0 Z " fill="#0785F6" transform="translate(152,14)"/>
<path d="M0 0 C4.60853797 0.72008406 8.67237409 2.31295939 13 4 C11.375 5.1875 11.375 5.1875 9 6 C6.97481509 5.0520411 4.97522846 4.04808041 3 3 C0.24853726 2.74715633 0.24853726 2.74715633 -2 3 C-1.34 2.01 -0.68 1.02 0 0 Z " fill="#2468C8" transform="translate(83,141)"/>
<path d="M0 0 C0.99 0.33 1.98 0.66 3 1 C4.6875 4.5625 4.6875 4.5625 6 8 C3.23737447 7.6189482 2.15856106 7.16402868 0.1875 5.125 C-0.204375 4.42375 -0.59625 3.7225 -1 3 C-0.67 2.01 -0.34 1.02 0 0 Z " fill="#0F85FB" transform="translate(75,129)"/>
<path d="M0 0 C0.66 0.99 1.32 1.98 2 3 C-0.31 5.97 -2.62 8.94 -5 12 C-5.33 10.68 -5.66 9.36 -6 8 C-5.0409375 7.6596875 -5.0409375 7.6596875 -4.0625 7.3125 C-1.73252567 6.15613334 -1.73252567 6.15613334 -1.3125 3.4375 C-1.1578125 2.2309375 -1.1578125 2.2309375 -1 1 C-0.67 0.67 -0.34 0.34 0 0 Z " fill="#2E80F3" transform="translate(173,148)"/>
<path d="M0 0 C0.66 0 1.32 0 2 0 C2.58384377 1.93117554 3.14147054 3.87029395 3.6875 5.8125 C4.00074219 6.89144531 4.31398438 7.97039062 4.63671875 9.08203125 C5 12 5 12 3.58203125 13.88671875 C3.05996094 14.25410156 2.53789063 14.62148437 2 15 C2.04125 13.7625 2.0825 12.525 2.125 11.25 C2.13675515 7.91741583 1.71903088 5.9008646 0 3 C0 2.01 0 1.02 0 0 Z " fill="#2A7FED" transform="translate(70,120)"/>
<path d="M0 0 C0 0.99 0 1.98 0 3 C-1.62935241 4.37868281 -3.29749607 5.71274093 -5 7 C-5.33 7.66 -5.66 8.32 -6 9 C-6.66 9 -7.32 9 -8 9 C-8.33 9.99 -8.66 10.98 -9 12 C-9.66 11.67 -10.32 11.34 -11 11 C-9.92173635 9.72486237 -8.83714481 8.45507431 -7.75 7.1875 C-7.14671875 6.47980469 -6.5434375 5.77210937 -5.921875 5.04296875 C-4.07629602 3.08110329 -2.20054668 1.54330375 0 0 Z " fill="#3282ED" transform="translate(51,49)"/>
<path d="M0 0 C1.32 0 2.64 0 4 0 C4 1.98 4 3.96 4 6 C3.34 6 2.68 6 2 6 C1.67 6.66 1.34 7.32 1 8 C-0.35439668 5.29120665 -0.06501451 2.99066732 0 0 Z " fill="#0D83FB" transform="translate(34,84)"/>
<path d="M0 0 C2.97 0 5.94 0 9 0 C9.33 0.66 9.66 1.32 10 2 C7.03 2.66 4.06 3.32 1 4 C0.67 2.68 0.34 1.36 0 0 Z " fill="#0F84F3" transform="translate(80,42)"/>
<path d="M0 0 C6.93 0.33 13.86 0.66 21 1 C20.67 1.66 20.34 2.32 20 3 C13.4 3 6.8 3 0 3 C0 2.01 0 1.02 0 0 Z " fill="#1056BC" transform="translate(151,23)"/>
<path d="M0 0 C-2.39509338 2.89932357 -4.31245243 3.50168276 -8 4 C-8 2.68 -8 1.36 -8 0 C-4.94736336 -0.98120464 -3.05263664 -0.98120464 0 0 Z " fill="#0E84FC" transform="translate(127,136)"/>
<path d="M0 0 C0.33 0 0.66 0 1 0 C1.02689216 1.47906892 1.04634621 2.95827483 1.0625 4.4375 C1.07410156 5.26121094 1.08570312 6.08492188 1.09765625 6.93359375 C1 9 1 9 0 10 C-0.36760731 12.32817964 -0.70241581 14.6618385 -1 17 C-1.33 17 -1.66 17 -2 17 C-2.25287193 10.93107371 -1.69832609 5.83799592 0 0 Z " fill="#2C7EE8" transform="translate(70,97)"/>
<path d="M0 0 C0.99 0.33 1.98 0.66 3 1 C0.36 3.64 -2.28 6.28 -5 9 C-5.33 7.68 -5.66 6.36 -6 5 C-5.01 5 -4.02 5 -3 5 C-2.5359375 4.0409375 -2.5359375 4.0409375 -2.0625 3.0625 C-1 1 -1 1 0 0 Z " fill="#2984F2" transform="translate(157,58)"/>
<path d="M0 0 C1.9375 0.375 1.9375 0.375 4 1 C4.33 1.66 4.66 2.32 5 3 C3.02 4.32 1.04 5.64 -1 7 C-1.33 5.68 -1.66 4.36 -2 3 C-1.34 3 -0.68 3 0 3 C0 2.01 0 1.02 0 0 Z " fill="#0984FB" transform="translate(154,55)"/>
<path d="M0 0 C2.67927341 4.01891012 2.15601248 6.24161923 2 11 C1.01 11 0.02 11 -1 11 C-0.67 7.37 -0.34 3.74 0 0 Z " fill="#3667CA" transform="translate(184,47)"/>
<path d="M0 0 C1.21236328 0.01353516 1.21236328 0.01353516 2.44921875 0.02734375 C3.37154297 0.04474609 3.37154297 0.04474609 4.3125 0.0625 C3.9825 0.7225 3.6525 1.3825 3.3125 2.0625 C0.80859375 2.4765625 0.80859375 2.4765625 -2.25 2.6875 C-3.26191406 2.76226562 -4.27382812 2.83703125 -5.31640625 2.9140625 C-6.09886719 2.96304688 -6.88132812 3.01203125 -7.6875 3.0625 C-7.6875 2.4025 -7.6875 1.7425 -7.6875 1.0625 C-4.80538698 0.10179566 -2.98899956 -0.04331883 0 0 Z " fill="#1085F8" transform="translate(123.6875,35.9375)"/>
<path d="M0 0 C0.33 0.99 0.66 1.98 1 3 C-0.14453125 4.82421875 -0.14453125 4.82421875 -1.8125 6.6875 C-2.35519531 7.31011719 -2.89789063 7.93273437 -3.45703125 8.57421875 C-5 10 -5 10 -7 10 C-5.33248852 6.05860922 -2.77289351 3.2107188 0 0 Z " fill="#2D64B4" transform="translate(159,145)"/>
<path d="M0 0 C0.66 0 1.32 0 2 0 C2 2.97 2 5.94 2 9 C1.01 9 0.02 9 -1 9 C-1.09765625 2.84765625 -1.09765625 2.84765625 -1 1 C-0.67 0.67 -0.34 0.34 0 0 Z " fill="#0886F4" transform="translate(137,105)"/>
<path d="M0 0 C2.4375 0.8125 2.4375 0.8125 5 2 C5.33 2.99 5.66 3.98 6 5 C4.35 5 2.7 5 1 5 C0.34 3.68 -0.32 2.36 -1 1 C-0.67 0.67 -0.34 0.34 0 0 Z " fill="#0D84F1" transform="translate(131,172)"/>
<path d="M0 0 C0.66 0.33 1.32 0.66 2 1 C0.6062718 5.43458973 -1.60582235 7.87378374 -5 11 C-5 7.06764531 -3.45054659 5.97035951 -1 3 C-0.67 2.01 -0.34 1.02 0 0 Z " fill="#3265B9" transform="translate(175,148)"/>
<path d="M0 0 C1.98 0 3.96 0 6 0 C6 1.32 6 2.64 6 4 C4.35 4 2.7 4 1 4 C0.67 2.68 0.34 1.36 0 0 Z " fill="#0A86F2" transform="translate(30,132)"/>
<path d="M0 0 C3 2 3 2 3.8125 5.4375 C4 9 4 9 2 12 C0.86235649 7.73383684 0 4.43513689 0 0 Z " fill="#2158CD" transform="translate(36,116)"/>
<path d="M0 0 C0.93423645 3.01031744 1.04449911 3.86650268 0 7 C-2.31 7.33 -4.62 7.66 -7 8 C-6.02133662 6.85373678 -5.04205413 5.70800212 -4.0625 4.5625 C-3.51722656 3.92441406 -2.97195312 3.28632812 -2.41015625 2.62890625 C-1.63204305 1.73008851 -0.84063472 0.84063472 0 0 Z " fill="#327FF1" transform="translate(135,62)"/>
<path d="M0 0 C0.99 0.33 1.98 0.66 3 1 C0.69 3.31 -1.62 5.62 -4 8 C-4.33 7.01 -4.66 6.02 -5 5 C-3.35 3.35 -1.7 1.7 0 0 Z " fill="#376BBA" transform="translate(158,60)"/>
<path d="M0 0 C0.6875 1.625 0.6875 1.625 1 4 C-0.4375 7.25 -0.4375 7.25 -2 10 C-2.66 9.01 -3.32 8.02 -4 7 C-3.25 3.875 -3.25 3.875 -2 1 C-1.34 0.67 -0.68 0.34 0 0 Z " fill="#2980EF" transform="translate(179,137)"/>
<path d="M0 0 C1.1875 1.5625 1.1875 1.5625 2 4 C0.625 7.75 0.625 7.75 -1 11 C-2.60080151 6.99799622 -1.29279692 3.95443764 0 0 Z " fill="#2E5CC5" transform="translate(140,116)"/>
<path d="M0 0 C0.99 0 1.98 0 3 0 C2.125 5.75 2.125 5.75 1 8 C0.34 7.67 -0.32 7.34 -1 7 C-0.67 6.01 -0.34 5.02 0 4 C-0.66 3.67 -1.32 3.34 -2 3 C-1.34 3 -0.68 3 0 3 C0 2.01 0 1.02 0 0 Z " fill="#0C83F7" transform="translate(42,71)"/>
<path d="M0 0 C0 1.65 0 3.3 0 5 C-2.97 4.505 -2.97 4.505 -6 4 C-3.33333333 0 -3.33333333 0 0 0 Z " fill="#0F84F8" transform="translate(76,36)"/>
<path d="M0 0 C0.66 0 1.32 0 2 0 C2.12375 1.093125 2.2475 2.18625 2.375 3.3125 C2.75464801 7.07381802 2.75464801 7.07381802 5 10 C2.13522966 8.94958421 1.16086774 8.29875437 -0.3125 5.5625 C-1 3 -1 3 0 0 Z " fill="#2F5DB2" transform="translate(146,14)"/>
<path d="M0 0 C1.32 0 2.64 0 4 0 C4 1.65 4 3.3 4 5 C3.01 5 2.02 5 1 5 C0.67 3.35 0.34 1.7 0 0 Z " fill="#0786F6" transform="translate(14,158)"/>
<path d="M0 0 C0.33 0.66 0.66 1.32 1 2 C0 5 0 5 -3 7 C-3.99 6.67 -4.98 6.34 -6 6 C-4.02 4.02 -2.04 2.04 0 0 Z " fill="#3E6DB0" transform="translate(41,160)"/>
<path d="M0 0 C1.98 0 3.96 0 6 0 C6.33 1.32 6.66 2.64 7 4 C4.69 3.34 2.38 2.68 0 2 C0 1.34 0 0.68 0 0 Z " fill="#0B86F8" transform="translate(123,78)"/>
<path d="M0 0 C-1.0975223 2.99324263 -1.67682892 3.84610901 -4.625 5.25 C-5.40875 5.4975 -6.1925 5.745 -7 6 C-5.81636731 2.44910192 -3.99368042 0 0 0 Z " fill="#206AAB" transform="translate(130,137)"/>
<path d="M0 0 C1.32 0.33 2.64 0.66 4 1 C1.03 2.65 -1.94 4.3 -5 6 C-3 2 -3 2 0 0 Z " fill="#2163BC" transform="translate(61,39)"/>
</svg>
